<?xml version="1.0" encoding="utf-8"?>
<!-- Generator: Adobe Illustrator 27.5.0, SVG Export Plug-In . SVG Version: 6.00 Build 0)  -->
<svg version="1.1" id="Layer_1" xmlns="http://www.w3.org/2000/svg" xmlns:xlink="http://www.w3.org/1999/xlink" x="0px" y="0px"
	 viewBox="0 0 600 420" style="enable-background:new 0 0 600 420;" xml:space="preserve">
<g>
	
		<ellipse transform="matrix(0.7071 -0.7071 0.7071 0.7071 18.3457 341.2294)" style="fill:#E4F0FF;" cx="421.073" cy="148.469" rx="93.423" ry="93.423"/>
	<g>
		<path style="fill:#FFC9C2;" d="M481.744,368.427c0,0,2.187,11.284-8.528,15.688l4.491,5.711h12.828l-0.075-3.429l0.989-9.347
			L481.744,368.427z"/>
		<g>
			<path style="fill:#EB334B;" d="M477.999,388.364c0,0,6.267,1.312,12.462-1.968c0,0,4.373,2.512,4.3,9.236h-17.053
				L477.999,388.364z"/>
			<path style="fill:#EB334B;" d="M482.59,395.287c0,0-4.189-11.461-8.089-12.608c-1.239-0.364-4.959,3.544-6.413,4.737
				c-1.895,1.554-8.599,2.405-10.348,3.134c-1.749,0.729-0.583,3.571-0.583,3.571L482.59,395.287z"/>
			<path style="fill:#0C2B47;" d="M496.072,395.069c0-0.563-0.457-1.02-1.02-1.02h-23.831c-4.82,0-11.681-0.996-13.915-1.341
				c-0.405-0.063-0.784,0.216-0.847,0.621l-0.22,1.428c-0.059,0.383,0.186,0.747,0.564,0.836c2.713,0.637,12.996,2.975,17.843,2.975
				c1.458,0,2.551-1.749,5.684-1.749s2.988,1.749,4.956,1.749h9.765c0.563,0,1.02-0.457,1.02-1.02V395.069z"/>
		</g>
		<path style="fill:#FFC9C2;" d="M430.09,369.467c0,0,0.093,10.245-10.622,14.648l4.491,5.711h12.828l-0.075-3.429l2.321-8.86
			L430.09,369.467z"/>
		<g>
			<path style="fill:#EB334B;" d="M424.251,388.364c0,0,6.267,1.312,12.462-1.968c0,0,4.373,2.512,4.3,9.236H423.96L424.251,388.364
				z"/>
			<path style="fill:#EB334B;" d="M428.842,395.287c0,0-4.189-11.461-8.089-12.608c-1.239-0.364-4.959,3.544-6.413,4.737
				c-1.895,1.554-8.599,2.405-10.349,3.134c-1.749,0.729-0.583,3.571-0.583,3.571L428.842,395.287z"/>
			<path style="fill:#0C2B47;" d="M442.325,395.069c0-0.563-0.457-1.02-1.02-1.02h-23.831c-4.82,0-11.681-0.996-13.915-1.341
				c-0.406-0.063-0.784,0.216-0.847,0.621l-0.22,1.428c-0.059,0.383,0.186,0.747,0.564,0.836c2.713,0.637,12.996,2.975,17.843,2.975
				c1.457,0,2.551-1.749,5.684-1.749c3.134,0,2.988,1.749,4.956,1.749h9.766c0.564,0,1.02-0.457,1.02-1.02V395.069z"/>
		</g>
		<path style="fill:#4A7C9E;" d="M468.574,227.98c0,0-1.76,44.402,3.081,65.992c4.841,21.59,6.162,68.681,5.281,81.885
			c0,0,8.802,5.329,15.844,6.186c0,0,16.266-63.686,5.264-96.446c0,0,7.5-60.697-3.943-82.262
			C482.657,181.768,468.574,227.98,468.574,227.98z"/>
		<path style="fill:#4A7C9E;" d="M457.681,221.488c0,0-13.898,32.018-17.127,62.826c-3.228,30.808-9.39,72.178-15.551,92.423
			c0,0,9.098,5.721,15.551,5.281c0,0,27.177-53.381,26.297-92.111c0,0,55.318-86.294,18.618-98.537
			C448.769,179.128,457.681,221.488,457.681,221.488z"/>
		<path style="fill:#FFC9C2;" d="M416.091,158.443c0,0-21.994,27.232-33.668,33.008c-9.056,4.481-28.315,16.955-28.315,16.955
			l3.961,5.611c0,0,23.693-9.033,35.246-12.994c11.553-3.961,26.672-23.539,26.672-23.539L416.091,158.443z"/>
		<path style="fill:#0E4164;" d="M382.787,131.844c2.335,4.984,7.636,7.742,7.636,7.742c7.349,18.891,9.152,30.201,9.152,30.201
			l11.514-15.156l8.55-6.696c4.255-2.194,8.373-2.776,12.863-0.956c-5.489-13.261-19.699-30.052-20.369-30.551
			c-0.378-0.28-2.462-1.218-6.24-1.439c-1.46-0.09-3.176-0.07-5.144,0.137c-1.986,0.205-4.22,0.602-6.711,1.266
			C382.669,119.425,380.449,126.861,382.787,131.844z"/>
		<path style="fill:#0C2B47;" d="M415.791,150.683l0.934,6.992l-17.149,12.112c0,0-1.803-11.31-9.152-30.201l18.288-7.701
			L415.791,150.683z"/>
		<path style="fill:#0C2B47;" d="M388.981,132.649c0,0,8.736,12.272,1.441,6.937c-7.295-5.335-5.207-14.403-5.207-14.403
			C385.69,130.515,388.981,132.649,388.981,132.649z"/>
		<path style="fill:#FFC9C2;" d="M412.74,135.798l6.9,12.137c0,0,0.583,5.48-5.309,13.501c0,0-3.346-7.251-6.56-13.411
			L412.74,135.798z"/>
		<path style="fill:#FFB2A8;" d="M410.727,153.887c-0.927-1.89-1.948-3.93-2.956-5.863l3.52-8.661l1.224-0.894
			C412.515,138.469,415.846,147.822,410.727,153.887z"/>
		<path style="fill:#FFC9C2;" d="M412.74,135.798c0,0-0.439,14.159-7.451,17.386c-7.012,3.227-16.176-13.825-16.342-18.612
			c-0.166-4.788,1.353-10.617,10.205-13.519c8.852-2.902,12.359,11.612,12.359,11.612s0.652-4.157,2.928-2.481
			C416.713,131.86,415.098,137.442,412.74,135.798z"/>
		<path style="fill:#FFB2A8;" d="M413.085,132.974c0.053,0.952,0.406,1.707,0.788,1.686c0.383-0.021,0.65-0.811,0.597-1.763
			c-0.053-0.952-0.406-1.707-0.788-1.686C413.3,131.233,413.033,132.022,413.085,132.974z"/>
		<path style="fill:#FFFFFF;" d="M405.818,144.185c-0.247,0.039-1.652,0.765-2.76,2.103c-1.107,1.338-1.803,2.165-4.735,2.12
			c0,0,2.263,2.872,4.597,2.801C405.253,151.139,405.818,144.185,405.818,144.185z"/>
		<path style="fill:#0E4164;" d="M411.51,132.665l-1.518,4.266c-0.124,0.35-0.605,0.384-0.777,0.055
			c-1.074-2.051-3.871-7.223-6.116-9.877c0,0-9.212-0.096-14.117,5.539l-0.408-8.213l14.699-6.339
			C403.273,118.097,412.552,125.983,411.51,132.665z"/>
		<g>
			<g>
				<path style="fill:#0C2B47;" d="M416.66,126.987c1.371,1.926,2.659,3.911,3.901,5.922c1.215,2.028,2.406,4.071,3.494,6.17
					c0.564,1.038,1.072,2.106,1.602,3.162c0.261,0.53,0.499,1.071,0.75,1.606c0.25,0.535,0.493,1.073,0.733,1.613
					c-0.588-1.026-1.131-2.073-1.714-3.098l-0.864-1.543c-0.284-0.516-0.573-1.03-0.87-1.539l-0.876-1.535l-0.896-1.523
					c-0.586-1.022-1.207-2.023-1.812-3.034c-1.229-2.01-2.492-3.998-3.789-5.966c-0.324-0.492-0.651-0.982-0.983-1.469
					c-0.327-0.491-0.661-0.975-0.998-1.459c-0.664-0.975-1.354-1.931-2.057-2.879C413.854,123.177,415.291,125.061,416.66,126.987z"
					/>
			</g>
			<g>
				<path style="fill:#0C2B47;" d="M409.265,134.337c-1.648-10.021-9.793-15.32-9.793-15.32
					C409.585,124.969,409.265,134.337,409.265,134.337z"/>
			</g>
			<g>
				<path style="fill:#0C2B47;" d="M394.803,119.851c0,0,4.65,5.668,1.132,13.614C395.934,133.465,397.858,128.001,394.803,119.851z
					"/>
			</g>
			<g>
				<path style="fill:#0C2B47;" d="M400.75,115.125c1.968-0.207,3.685-0.227,5.144-0.137c2.222,2.702,4.503,6.508,4.789,6.99
					C407.215,116.542,400.944,115.169,400.75,115.125z"/>
			</g>
		</g>
		<path style="fill:#EB334B;" d="M457.42,221.471c-0.272,0.011-0.521-0.119-0.657-0.351c-1.67-2.791-12.45-20.529-18.225-21.747
			c-6.273-1.319-22.777-1.631-24.759-4.778c-0.991-1.568-2.146-11.584-1.608-22.154c0.521-10.383,2.672-21.311,8.198-25.319
			c0.113-0.079,0.226-0.159,0.34-0.232c6.058-3.98,15.847,1.54,18.157,4.071c2.293,2.514,18.604,34.14,45.684,36.812
			c0.311,0.028,0.561,0.266,0.6,0.572C485.689,192.534,488.095,220.31,457.42,221.471z"/>
		<path style="fill:#FFC9C2;" d="M434.733,154.549c0,0,7.522,26.999,5.784,42.513c-1.655,14.776-22.151,42.217-22.151,42.217v2.971
			h-32.678c0,0,18.955-6.271,25.322-7.592c6.366-1.32,14.984-40.061,14.984-40.061s-4.492-27.304-6.272-36.154
			C417.942,149.592,430.442,146.297,434.733,154.549z"/>
		<path style="fill:#0C2B47;" d="M401.385,134.646c0.365,0.805,0.356,1.596-0.02,1.767c-0.377,0.171-0.978-0.343-1.344-1.148
			c-0.365-0.805-0.356-1.596,0.021-1.767C400.418,133.327,401.02,133.841,401.385,134.646z"/>
		<path style="fill:#0C2B47;" d="M393.061,138.395c0.365,0.805,0.356,1.596-0.021,1.767c-0.377,0.171-0.978-0.343-1.343-1.148
			c-0.365-0.805-0.356-1.596,0.021-1.767C392.094,137.076,392.696,137.59,393.061,138.395z"/>
		<g>
			<path style="fill:#EB9076;" d="M399.622,144.797c-0.037,0.019-0.077,0.032-0.117,0.033c-2.109,0.107-3.234-0.19-3.345-0.884
				c-0.166-1.048,2.055-2.547,2.15-2.61c0.093-0.063,0.215-0.067,0.266-0.007c0.052,0.06,0.016,0.16-0.079,0.224
				c-0.021,0.014-2.082,1.405-1.946,2.259c0.089,0.556,1.145,0.799,3.055,0.702c0.105-0.005,0.167,0.061,0.139,0.149
				C399.729,144.717,399.681,144.766,399.622,144.797z"/>
		</g>
		<path style="fill:#0E4164;" d="M397.685,132.755c0.85-0.489,2.312-1.082,4.068-0.775c0,0-1.247-1.181-3.008-0.73
			c-0.777,0.199-1.231,0.623-1.496,1.034C397.06,132.578,397.382,132.93,397.685,132.755z"/>
		<path style="fill:#0E4164;" d="M389.406,136.863c0.844-0.691,1.755-1.036,2.418-1.206c0.34-0.09,0.323-0.566-0.017-0.645
			c-0.476-0.108-1.098-0.091-1.789,0.311c-0.351,0.204-0.628,0.447-0.843,0.702L389.406,136.863z"/>
		<path style="fill:#FFC9C2;" d="M420.37,147.122l-8.198,25.319C412.693,162.057,414.844,151.13,420.37,147.122z"/>
		<g>
			<path style="fill:#EB9076;" d="M432.104,189.456c-0.054-0.056-0.144-0.059-0.2-0.005l-5.266,5.001
				c-0.057,0.054-0.059,0.144-0.006,0.2c0.028,0.029,0.065,0.044,0.103,0.044c0.035,0,0.07-0.013,0.097-0.039l5.266-5.001
				C432.155,189.603,432.157,189.513,432.104,189.456z"/>
			<path style="fill:#EB9076;" d="M394.604,188.566l-8.946,1.887c-0.076,0.016-0.125,0.091-0.109,0.168
				c0.014,0.067,0.073,0.112,0.138,0.112c0.029-0.003,8.975-1.89,8.975-1.89c0.076-0.016,0.126-0.091,0.109-0.168
				C394.756,188.599,394.684,188.551,394.604,188.566z"/>
			<path style="fill:#EB9076;" d="M413.743,159.958c-0.079-0.017-0.151,0.033-0.168,0.109c-0.016,0.071-1.512,7.194-1.545,12.373
				c-0.001,0.078,0.063,0.142,0.14,0.142c0.079,0,0.142-0.063,0.143-0.141c0.033-5.149,1.523-12.244,1.538-12.316
				C413.868,160.049,413.819,159.975,413.743,159.958z"/>
		</g>
		<g>
			<path style="fill:#F29507;" d="M469.319,186.887c-0.014-0.077-0.09-0.129-0.164-0.114c-0.077,0.014-0.128,0.087-0.114,0.164
				c0.035,0.197,3.405,19.881-9.03,31.956c-0.056,0.055-0.058,0.144-0.003,0.2c0.028,0.029,0.065,0.043,0.102,0.043
				c0.035,0,0.071-0.013,0.098-0.04C472.749,206.918,469.355,187.086,469.319,186.887z"/>
			<path style="fill:#F29507;" d="M481.621,190.176c-0.017-0.076-0.091-0.125-0.169-0.107c-0.076,0.017-0.124,0.093-0.107,0.169
				c0.035,0.157,3.329,15.812-11.78,25.537c-0.065,0.043-0.085,0.13-0.042,0.196c0.027,0.042,0.072,0.065,0.119,0.065
				c0.027,0,0.053-0.007,0.077-0.022C484.997,206.179,481.657,190.335,481.621,190.176z"/>
			<path style="fill:#F29507;" d="M438.154,161.315c-0.066,0.041-0.087,0.128-0.046,0.195c0.094,0.153,9.377,15.539,6.586,33.165
				c-0.012,0.077,0.04,0.15,0.118,0.162c0.091,0.002,0.151-0.048,0.162-0.118c2.806-17.728-6.53-33.203-6.625-33.357
				C438.309,161.295,438.221,161.274,438.154,161.315z"/>
		</g>
		<g>
			<path style="fill:#0C2B47;" d="M498.185,212.957c0.001-0.078-0.062-0.142-0.14-0.143c-0.079,0-0.142,0.062-0.143,0.14
				c-0.001,0.072-0.123,7.338-4.013,20.39c-3.59,12.047-11.216,31.626-27.157,56.487c-0.042,0.066-0.023,0.153,0.043,0.195
				c0.024,0.015,0.05,0.022,0.076,0.022c0.046,0,0.092-0.023,0.119-0.065c15.964-24.898,23.601-44.509,27.195-56.576
				C498.063,220.323,498.184,213.029,498.185,212.957z"/>
			<path style="fill:#0C2B47;" d="M496.436,287.033l-5.85,6.983c-0.05,0.06-0.043,0.149,0.018,0.199
				c0.026,0.022,0.059,0.033,0.091,0.033c0.04,0,0.081-0.017,0.108-0.051l5.85-6.983c0.05-0.06,0.043-0.149-0.018-0.199
				C496.575,286.965,496.486,286.973,496.436,287.033z"/>
			<path style="fill:#0C2B47;" d="M464.758,289.986l-5.735,6.67c-0.051,0.059-0.044,0.149,0.015,0.2
				c0.027,0.023,0.06,0.034,0.092,0.034c0.04,0,0.079-0.017,0.107-0.049l5.735-6.67c0.051-0.06,0.044-0.149-0.015-0.2
				C464.899,289.921,464.809,289.927,464.758,289.986z"/>
			<path style="fill:#0C2B47;" d="M459.136,223.666c0.105-0.006,10.407-0.41,19.614,3.395c0.018,0.008,0.036,0.011,0.054,0.011
				c0.055,0,0.108-0.033,0.131-0.087c0.03-0.072-0.005-0.155-0.077-0.185c-9.262-3.827-19.631-3.419-19.735-3.417
				c-0.078,0.003-0.139,0.07-0.135,0.148C458.992,223.608,459.054,223.668,459.136,223.666z"/>
		</g>
		<path style="opacity:0.43;fill:#FFFFFF;" d="M438.087,152.659c0,0,13.885,27.448,30.174,31.281
			C468.262,183.94,449.174,171.342,438.087,152.659z"/>
		<path style="opacity:0.43;fill:#FFFFFF;" d="M448.738,178.066c0,0,15.205,13.517,7.561,37.013
			C456.299,215.079,460.608,192.913,448.738,178.066z"/>
		<path style="opacity:0.19;fill:#FFFFFF;" d="M458.448,229.044c0,0-13.048,33.858-15.312,64.369
			c-2.265,30.511-14.613,81.745-14.613,81.745s15.39-54.314,16.977-80.911C447.087,267.651,458.448,229.044,458.448,229.044z"/>
		<path style="opacity:0.19;fill:#FFFFFF;" d="M498.043,293.414c0,0,4.257,48.092-7.491,85.444
			C490.552,378.858,497.75,324.615,498.043,293.414z"/>
	</g>
	<circle style="fill:#E4F0FF;" cx="164.862" cy="283.698" r="67.554"/>
	<circle style="fill:#E4F0FF;" cx="241.159" cy="78.375" r="47.159"/>
	<g>
		<g>
			<path style="fill:#FFC9C2;" d="M360.067,388.67c0,0-0.411-6.429-5.743-18.625l10.398-7.054c0,0,4.73,19.19,6.578,21.86
				c1.848,2.669,9.899,5.752,9.899,5.752l-1.432,3.825h-18.481L360.067,388.67z"/>
			<path style="fill:#416C8A;" d="M354.323,397.96c0,0,1.311-6.309,4.326-8.669c3.015-2.36-1.442,2.163,20.321,3.671
				c0,0,0.524-1.311,2.229-2.36c1.704-1.049,14.093,4.982,14.487,5.572s-0.328,1.786-0.328,1.786H354.323z"/>
			<path style="fill:#182933;" d="M395.625,398.567h-41.264c-0.335,0-0.606-0.272-0.606-0.606s0.271-0.606,0.606-0.606h41.264
				c0.335,0,0.607,0.271,0.607,0.606S395.96,398.567,395.625,398.567z"/>
		</g>
		<path style="fill:#FCB93C;" d="M288.641,144.347c0,0-9.012-0.048-13.949,21.282c-4.937,21.33,11.65,33.648,11.65,33.648
			l9.614-4.936c3.486-0.833,6.383-2.237,8.53-4.367c0,0,7.007-8.344,6.826-18.801C311.131,160.715,295.321,145.712,288.641,144.347z
			"/>
		<path style="fill:#F29507;" d="M293.45,164.398l15.603-0.852c1.045,2.014,1.786,4.015,2.097,5.908l-4.406,17.245
			c-0.557,0.925-1.066,1.676-1.46,2.226c-1.503,1.324-4.238,3.543-6.873,4.698c-0.781,0.275-1.6,0.514-2.455,0.718l-2.295-4.134
			L293.45,164.398z"/>
		<g>
			<path style="fill:#0C2B47;" d="M238.819,393.157c0,2.987,2.422,5.409,5.409,5.409c2.988,0,5.409-2.422,5.409-5.409
				c0-2.988-2.422-5.409-5.409-5.409C241.241,387.748,238.819,390.17,238.819,393.157z"/>
			<path style="fill:#0E4164;" d="M241.159,393.157c0,1.695,1.374,3.07,3.07,3.07c1.695,0,3.07-1.374,3.07-3.07
				c0-1.695-1.374-3.07-3.07-3.07C242.533,390.088,241.159,391.462,241.159,393.157z"/>
			<path style="fill:#0C2B47;" d="M329.401,393.157c0,2.987,2.422,5.409,5.409,5.409c2.987,0,5.409-2.422,5.409-5.409
				c0-2.988-2.422-5.409-5.409-5.409C331.822,387.748,329.401,390.17,329.401,393.157z"/>
			<path style="fill:#0C2B47;" d="M284.11,393.157c0,2.987,2.422,5.409,5.409,5.409c2.987,0,5.409-2.422,5.409-5.409
				c0-2.988-2.422-5.409-5.409-5.409C286.532,387.748,284.11,390.17,284.11,393.157z"/>
			<path style="fill:#0E4164;" d="M286.386,393.157c0,1.695,1.374,3.07,3.07,3.07c1.695,0,3.07-1.374,3.07-3.07
				c0-1.695-1.374-3.07-3.07-3.07C287.76,390.088,286.386,391.462,286.386,393.157z"/>
			<path style="fill:#0E4164;" d="M331.74,393.157c0,1.695,1.374,3.07,3.07,3.07c1.695,0,3.069-1.374,3.069-3.07
				c0-1.695-1.374-3.07-3.069-3.07C333.115,390.088,331.74,391.462,331.74,393.157z"/>
			<path style="fill:#0C2B47;" d="M276.174,305.468h26.79c2.006,0,3.632-1.626,3.632-3.632v-2.269h-34.053v2.269
				C272.542,303.842,274.168,305.468,276.174,305.468z"/>
			<rect x="286.913" y="307.661" style="fill:#0C2B47;" width="5.311" height="51.604"/>
			<path style="fill:#0C2B47;" d="M277.299,389.322h24.539v-37.011c0-0.852-0.691-1.543-1.543-1.543h-21.453
				c-0.852,0-1.543,0.691-1.543,1.543V389.322z"/>
			<path style="fill:#0C2B47;" d="M289.568,375.159l49.306,12.089c1.208,0.296,0.993,2.073-0.25,2.073h-98.111
				c-1.243,0-1.458-1.777-0.251-2.073L289.568,375.159z"/>
			<path style="fill:#6BB8DA;" d="M247.882,290.786h56.995l-24.071-79.582c-1.299-4.296-5.259-7.235-9.747-7.235h-42.395
				c-5.374,0-9.225,5.187-7.669,10.331L247.882,290.786z"/>
			<path style="fill:#0C2B47;" d="M283.36,392.307h12.191v-3.402c0-1.419-1.15-2.569-2.568-2.569h-7.054
				c-1.418,0-2.568,1.15-2.568,2.569V392.307z"/>
			<path style="fill:#0C2B47;" d="M328.714,392.307h12.191v-3.402c0-1.419-1.15-2.569-2.569-2.569h-7.054
				c-1.418,0-2.569,1.15-2.569,2.569V392.307z"/>
			<path style="fill:#0C2B47;" d="M238.133,392.307h12.191v-3.402c0-1.419-1.15-2.569-2.568-2.569h-7.054
				c-1.418,0-2.568,1.15-2.568,2.569V392.307z"/>
			<path style="fill:#57A5C5;" d="M228.663,203.969h3.541c-5.374,0-9.225,5.187-7.669,10.331l26.887,76.486h-3.541l-26.887-76.486
				C219.439,209.157,223.289,203.969,228.663,203.969z"/>
			<g>
				<path style="fill:#0C2B47;" d="M254.59,386.596c0.022,0,0.044-0.002,0.067-0.007l35.016-8.148l35.96,8.148
					c0.16,0.039,0.317-0.063,0.353-0.223c0.036-0.159-0.063-0.317-0.222-0.353l-36.093-8.178l-0.066,0.015l-35.081,8.163
					c-0.159,0.037-0.258,0.196-0.221,0.354C254.334,386.504,254.456,386.596,254.59,386.596z"/>
			</g>
			<path style="fill:#57A5C5;" d="M335.006,293.487v3.379c0,1.49-1.21,2.7-2.7,2.7h-85.473c-1.495,0-2.705-1.21-2.705-2.7v-3.379
				c0-1.49,1.21-2.7,2.705-2.7h85.473C333.796,290.788,335.006,291.998,335.006,293.487z"/>
			<path style="fill:#0C2B47;" d="M283.502,307.661h12.202c0.745,0,1.349-0.604,1.349-1.349v-0.843h-14.9v0.843
				C282.153,307.057,282.757,307.661,283.502,307.661z"/>
			<path style="fill:#0C2B47;" d="M281.71,350.768h15.923v-0.808c0-1.1-0.892-1.992-1.992-1.992h-11.939
				c-1.1,0-1.992,0.892-1.992,1.992V350.768z"/>
			<path style="fill:#0C2B47;" d="M256.527,300.568c0,0.551,0.447,0.997,0.997,0.997h28.86c0.551,0,0.997-0.447,0.997-0.997
				c0-0.551-0.446-0.997-0.997-0.997h-28.86C256.974,299.57,256.527,300.017,256.527,300.568z"/>
			<path style="fill:#0C2B47;" d="M286.755,300.568c0,0.551,0.447,0.997,0.997,0.997h28.86c0.551,0,0.997-0.447,0.997-0.997
				c0-0.551-0.447-0.997-0.997-0.997h-28.86C287.201,299.57,286.755,300.017,286.755,300.568z"/>
		</g>
		<g>
			<path style="fill:#FFC9C2;" d="M322.417,388.67c0,0,2.246-1.292-1.313-10.327l11.223-8.875c0,0,0.482,14.899,2.33,17.568
				c1.848,2.669,8.893,3.567,8.893,3.567l-1.432,3.825h-18.481L322.417,388.67z"/>
			<path style="fill:#4A7C9E;" d="M316.673,397.96c0,0,1.311-6.309,4.326-8.669c3.015-2.36-1.442,2.163,20.321,3.671
				c0,0,0.524-1.311,2.229-2.36c1.704-1.049,14.093,4.982,14.487,5.572s-0.328,1.786-0.328,1.786H316.673z"/>
			<path style="fill:#243E4E;" d="M357.975,398.567h-41.264c-0.335,0-0.606-0.272-0.606-0.606s0.271-0.606,0.606-0.606h41.264
				c0.335,0,0.607,0.271,0.607,0.606S358.31,398.567,357.975,398.567z"/>
		</g>
		<path style="fill:#FFC9C2;" d="M332.506,234.442l-15.468,0.793l-8.561-17.245l-3.074-6.188l3.986-23.434l1.721,1.206
			c0.957,0.668,1.721,1.585,2.202,2.65l8.532,18.769L332.506,234.442z"/>
		<path style="fill:#4A7C9E;" d="M321.845,210.991l-13.367,6.998l-3.074-6.188l3.986-23.434l1.721,1.206
			c0.957,0.668,1.721,1.585,2.202,2.65L321.845,210.991z"/>
		<path style="fill:#4A7C9E;" d="M315.255,265.796l-50.825-0.906c1.432-29.656,6.375-79.609,6.375-79.609l4.49-1.217l17.194-4.654
			l13.554,7.185l3.346,1.772c7.649,17.217,2.231,30.607,0.317,45.594C307.793,248.947,315.255,265.796,315.255,265.796z"/>
		<path style="fill:#FFC9C2;" d="M310.981,242.249h-29.548c-22.301,0-31.756-1.455-35.759-2.638
			c-1.749-0.521-2.808-2.299-2.457-4.093c2.904-14.771,8.855-27.329,13.956-36.065c2.899-4.96,5.531-8.685,7.179-10.882
			c1.087-1.449,2.655-2.463,4.427-2.848l2.027-0.442l4.037,18.389l-6.59,12.082l-6.16,11.301c7.864,6.59,26.355,7.655,26.355,7.655
			s9.568-6.166,13.396-4.042C305.664,232.794,310.981,242.249,310.981,242.249z"/>
		<path style="fill:#FFC9C2;" d="M306.043,186.595c-0.045,5.486-1.568,14.573-11.176,13.922
			c-10.1-0.685-16.764-11.046-19.572-16.453l17.25-5.12L306.043,186.595z"/>
		<path style="fill:#EB334B;" d="M318.953,264.891c0,0,21.364,1.063,26.465,7.44c5.102,6.377,12.329,63.772,26.359,98.209
			c0,0-10.203,5.102-15.73,5.527c-5.527,0.425-28.485-64.197-30.611-77.377C323.31,285.511,318.953,264.891,318.953,264.891z"/>
		<path style="fill:#EB334B;" d="M264.428,264.891c0,0,34.096-2.878,60.001,0c5.739,0.638,2.814,80.99,14.612,111.601
			c0,0-6.058,5.102-17.856,4.145c0,0-22.695-57.541-22.001-89.281C299.183,291.356,250.398,300.603,264.428,264.891z"/>
		<path style="fill:#FFC9C2;" d="M288.98,166.771l-3.155,12.253c0,0,0.625,5.374,7.836,11.184c0,0,1.281-7.319,2.702-13.625
			L288.98,166.771z"/>
		<path style="fill:#F29507;" d="M288.98,166.771c0,0-4.038,17.382-0.509,28.887c0,0-9.956-17.341-2.704-31.398L288.98,166.771z"/>
		<path style="fill:#FFB2A8;" d="M295.102,182.559c0.383-1.921,0.815-3.999,1.261-5.977l-5.23-6.95l-1.314-0.512
			C289.819,169.12,289.053,178.325,295.102,182.559z"/>
		<path style="fill:#F29507;" d="M285.767,164.26l1.615,1.262c-5.832,12.423,1.089,30.136,1.089,30.136
			S278.515,178.317,285.767,164.26z"/>
		<path style="fill:#FFC9C2;" d="M288.98,166.771c0,0,3.77,12.63,10.845,13.86c7.075,1.231,11.253-16.289,10.261-20.635
			c-0.992-4.345-3.748-9.226-12.401-9.726c-8.653-0.5-8.347,13.389-8.347,13.389s-1.578-3.583-3.224-1.533
			C284.468,164.177,287.252,168.812,288.98,166.771z"/>
		<path style="fill:#FFB2A8;" d="M287.996,164.314c0.179,0.869,0.042,1.632-0.307,1.704c-0.349,0.072-0.778-0.574-0.957-1.443
			c-0.18-0.869-0.042-1.632,0.307-1.704C287.388,162.798,287.817,163.445,287.996,164.314z"/>
		<path style="fill:#FFFFFF;" d="M297.179,172.622c0.233-0.024,1.681,0.296,3.006,1.243c1.325,0.946,2.154,1.528,4.8,0.784
			c0,0-1.361,3.146-3.492,3.642C299.361,178.788,297.179,172.622,297.179,172.622z"/>
		<path style="fill:#0C2B47;" d="M306.633,163.935c-0.159,0.756-0.652,1.293-1.101,1.199c-0.449-0.094-0.684-0.784-0.524-1.541
			c0.159-0.756,0.652-1.293,1.101-1.198C306.558,162.489,306.793,163.179,306.633,163.935z"/>
		<path style="fill:#FCB93C;" d="M289.339,163.66c0,0,5.558-2.241,6.998-11.29c0,0,15.936,10.471,12.778,24.965
			c-3.083,14.152-12.691,16.883-13.143,17.003c0.439-0.027,14.707-1.112,18.737-20.831c3.997-19.554-14.868-41.951-25.317-30.089
			c-0.257,0.29-0.507,0.6-0.751,0.93C285.941,147.999,289.339,163.66,289.339,163.66z"/>
		<g>
			<g>
				<path style="fill:#F29507;" d="M288.641,144.347c0.244-0.331,0.494-0.641,0.751-0.93c2.171,0.821,3.631,2.316,4.494,3.465
					c0.65,0.864,0.961,1.534,0.983,1.584c-2.901-3.149-6.026-4.062-6.218-4.116C288.645,144.348,288.641,144.347,288.641,144.347z"
					/>
			</g>
			<g>
				<path style="fill:#F29507;" d="M309.201,161.937l0.205,0.456l0.102,0.228l0.09,0.233l0.359,0.932
					c0.203,0.634,0.429,1.261,0.581,1.909l0.126,0.483l0.063,0.241l0.049,0.245l0.196,0.978c0.065,0.326,0.099,0.657,0.148,0.986
					c0.042,0.33,0.094,0.658,0.11,0.99l0.073,0.993c0.025,0.331,0.016,0.663,0.025,0.995l0.008,0.497
					c0.005,0.166,0.005,0.332-0.005,0.497l-0.042,0.993c-0.01,0.165-0.013,0.331-0.029,0.496l-0.053,0.494l-0.105,0.987
					c-0.085,0.656-0.208,1.307-0.316,1.958l0.107-0.985c0.033-0.328,0.086-0.654,0.105-0.984l0.061-0.987l0.03-0.493
					c0.008-0.164,0.004-0.329,0.006-0.494l0.013-0.987c0.006-0.164,0.001-0.329-0.008-0.493l-0.021-0.493
					c-0.018-0.328-0.018-0.657-0.052-0.984l-0.099-0.98c-0.025-0.327-0.084-0.651-0.135-0.975c-0.055-0.323-0.088-0.65-0.156-0.971
					l-0.202-0.963l-0.051-0.24l-0.064-0.237l-0.129-0.474c-0.156-0.637-0.384-1.253-0.589-1.874l-0.362-0.913l-0.09-0.228
					l-0.103-0.223l-0.205-0.446c-0.544-1.191-1.181-2.34-1.916-3.426c-0.736-1.085-1.568-2.103-2.455-3.07
					c-0.891-0.964-1.857-1.861-2.89-2.677c-1.024-0.826-2.112-1.578-3.27-2.214c2.385,1.147,4.522,2.788,6.379,4.683
					C306.548,157.298,308.08,159.521,309.201,161.937z"/>
			</g>
			<g>
				<path style="fill:#F29507;" d="M298.09,143.876c0.61-0.151,1.25-0.114,1.858,0.004c0.611,0.125,1.192,0.351,1.749,0.616
					l0.412,0.212c0.137,0.071,0.265,0.158,0.397,0.236l0.394,0.243c0.131,0.081,0.265,0.159,0.385,0.256l0.738,0.557
					c0.239,0.194,0.462,0.407,0.693,0.61c0.898,0.84,1.717,1.765,2.43,2.763c0.183,0.246,0.364,0.494,0.526,0.754l0.501,0.771
					c0.158,0.262,0.309,0.529,0.464,0.793l0.231,0.397c0.075,0.133,0.142,0.271,0.213,0.407l0.419,0.817
					c0.133,0.275,0.257,0.555,0.386,0.832c0.267,0.551,0.48,1.124,0.712,1.689c0.883,2.279,1.502,4.655,1.874,7.061
					c-0.278-1.185-0.55-2.37-0.931-3.524c-0.349-1.163-0.775-2.299-1.228-3.422c-0.245-0.554-0.469-1.117-0.74-1.659
					c-0.132-0.272-0.258-0.547-0.394-0.817l-0.427-0.8c-0.072-0.133-0.14-0.268-0.214-0.4l-0.23-0.391
					c-0.154-0.26-0.304-0.522-0.461-0.78c-0.338-0.5-0.648-1.02-1.019-1.496c-0.694-0.987-1.497-1.893-2.365-2.723
					c-0.223-0.201-0.438-0.412-0.668-0.605l-0.711-0.553c-0.115-0.097-0.244-0.174-0.37-0.255l-0.379-0.243
					c-0.127-0.079-0.249-0.168-0.381-0.24l-0.395-0.216c-0.533-0.272-1.09-0.499-1.669-0.64c-0.577-0.133-1.181-0.187-1.762-0.067
					c-0.581,0.109-1.132,0.385-1.573,0.793c-0.439,0.407-0.795,0.915-1.025,1.478c0.19-0.579,0.519-1.115,0.953-1.553
					C296.919,144.341,297.481,144.02,298.09,143.876z"/>
			</g>
			<g>
				<path style="fill:#F29507;" d="M278.044,163.41c0.344-1.393,0.744-2.773,1.24-4.12c0.493-1.347,1.048-2.674,1.712-3.947
					c0.661-1.273,1.395-2.51,2.233-3.673c0.418-0.582,0.868-1.141,1.337-1.682c0.471-0.539,0.966-1.059,1.514-1.519
					c-1.027,0.994-1.902,2.129-2.694,3.31c-0.799,1.178-1.499,2.421-2.121,3.699c-1.241,2.558-2.196,5.254-2.839,8.024
					c-0.348,1.379-0.602,2.78-0.817,4.186c-0.094,0.705-0.2,1.409-0.261,2.119c-0.034,0.354-0.075,0.708-0.104,1.063l-0.081,1.065
					c-0.065,0.71-0.075,1.422-0.111,2.134c-0.029,0.712-0.019,1.425-0.032,2.138c0.001,0.713,0.019,1.426,0.027,2.14l0.092,2.14
					c-0.069-0.711-0.137-1.422-0.196-2.135c-0.038-0.714-0.085-1.428-0.116-2.142c-0.008-0.715-0.034-1.431-0.024-2.146
					c0.018-0.715,0.01-1.432,0.057-2.147C276.998,169.056,277.38,166.202,278.044,163.41z"/>
			</g>
			<g>
				<path style="fill:#F29507;" d="M285.883,161.248c1.268-0.778,2.596-1.421,3.886-2.123c0.624-0.356,1.237-0.746,1.749-1.253
					c0.278-0.231,0.498-0.518,0.741-0.783c0.109-0.143,0.21-0.292,0.318-0.437c0.113-0.142,0.201-0.299,0.293-0.454
					c0.37-0.62,0.662-1.291,0.859-1.993c0.204-0.701,0.317-1.43,0.337-2.167c0.113,1.471-0.205,2.994-0.93,4.312
					c-0.165,0.339-0.393,0.641-0.605,0.952c-0.246,0.285-0.471,0.591-0.755,0.841c-0.138,0.128-0.267,0.268-0.416,0.384l-0.45,0.342
					c-0.076,0.056-0.149,0.117-0.227,0.168l-0.242,0.146l-0.485,0.291c-0.653,0.35-1.31,0.681-1.966,1.018
					c-0.657,0.332-1.313,0.666-1.949,1.023c-0.631,0.363-1.239,0.766-1.725,1.303c-0.489,0.535-0.848,1.185-1.187,1.839
					c0.259-0.69,0.583-1.364,1.04-1.964C284.638,162.099,285.253,161.64,285.883,161.248z"/>
			</g>
			<g>
				<path style="fill:#F29507;" d="M284.068,156.819c0.146-0.243,0.293-0.486,0.443-0.726c0.076-0.12,0.147-0.243,0.226-0.361
					l0.243-0.35l0.493-0.695l0.53-0.668c0.728-0.873,1.519-1.699,2.41-2.411c0.447-0.352,0.908-0.688,1.399-0.977
					c0.491-0.284,0.996-0.554,1.538-0.72c-0.507,0.248-0.984,0.546-1.433,0.881c-0.458,0.322-0.884,0.685-1.306,1.05
					c-0.833,0.745-1.594,1.565-2.304,2.427l-0.528,0.651l-0.495,0.677c-0.347,0.44-0.63,0.925-0.955,1.382
					c-0.163,0.229-0.294,0.477-0.446,0.713l-0.446,0.716c-0.285,0.485-0.553,0.98-0.848,1.463c0.214-0.522,0.449-1.036,0.678-1.555
					C283.531,157.818,283.781,157.308,284.068,156.819z"/>
			</g>
		</g>
		<path style="fill:#92C9E3;" d="M428.003,247.354H200.916c-1.409,0-2.551-1.142-2.551-2.551s1.142-2.551,2.551-2.551h227.086
			c1.409,0,2.551,1.142,2.551,2.551S429.412,247.354,428.003,247.354z"/>
		<rect x="219.708" y="247.356" style="fill:#92C9E3;" width="16.872" height="151.211"/>
		<rect x="392.843" y="247.356" style="fill:#92C9E3;" width="16.877" height="151.211"/>
		<rect x="219.708" y="247.356" style="fill:#57A5C5;" width="16.872" height="2.401"/>
		<rect x="392.843" y="247.356" style="fill:#57A5C5;" width="16.877" height="2.401"/>
		<g>
			<g>
				<path style="fill:#0C2B47;" d="M355.997,242.252h-41.514c-0.674,0-1.103-0.721-0.781-1.313l17.999-33.099
					c0.156-0.286,0.455-0.464,0.781-0.464h41.514c0.674,0,1.103,0.721,0.781,1.313l-17.999,33.099
					C356.622,242.074,356.323,242.252,355.997,242.252z"/>
			</g>
			<path style="fill:#0C2B47;" d="M314.843,240.939l17.999-33.099c0.156-0.286,0.455-0.464,0.781-0.464h-1.141
				c-0.326,0-0.625,0.178-0.781,0.464l-17.999,33.099c-0.322,0.592,0.107,1.313,0.781,1.313h1.141
				C314.95,242.252,314.521,241.531,314.843,240.939z"/>
			<path style="fill:#0C2B47;" d="M357.322,242.252h-74.816c-0.119,0-0.216-0.097-0.216-0.216v-1.301
				c0-0.119,0.096-0.216,0.216-0.216h74.816c0.119,0,0.216,0.097,0.216,0.216v1.301
				C357.538,242.155,357.441,242.252,357.322,242.252z"/>
		</g>
		<path style="fill:#F29507;" d="M295.865,160.595c0.177,0.264,1.659-0.267,2.577-0.313c0.918-0.046,1.419,0.294,1.717,0.297
			c0.298,0.003,0.694-0.299,0.339-0.853c-0.356-0.554-1.383-0.527-2.136-0.454C297.609,159.346,295.573,160.158,295.865,160.595z"/>
		<path style="fill:#0C2B47;" d="M298.56,163.049c-0.159,0.756-0.652,1.293-1.101,1.199c-0.449-0.094-0.684-0.784-0.524-1.541
			c0.159-0.757,0.652-1.293,1.101-1.199C298.484,161.603,298.719,162.293,298.56,163.049z"/>
		<g>
			<path style="fill:#EB9076;" d="M302.16,170.975c-0.081,0.023-0.167-0.019-0.197-0.098c-0.031-0.084,0.011-0.177,0.095-0.208
				c0.606-0.228,0.973-0.574,1.089-1.028c0.28-1.089-0.896-2.483-0.908-2.497c-0.058-0.068-0.05-0.17,0.018-0.228
				c0.067-0.058,0.17-0.05,0.228,0.018c0.053,0.062,1.297,1.538,0.976,2.787c-0.145,0.562-0.578,0.983-1.289,1.251
				C302.167,170.973,302.163,170.974,302.16,170.975z"/>
		</g>
		<path style="fill:#4A7C9E;" d="M274.842,203.671c-1.409,4.137-3.759,8.143-6.59,12.082c-2.412-8.985-7.689-13.933-11.08-16.3
			c2.899-4.96,5.531-8.685,7.179-10.882c1.087-1.449,2.655-2.463,4.427-2.848l2.027-0.442
			C273.593,191.087,274.819,197.243,274.842,203.671z"/>
		<g>
			<path style="fill:#EB9076;" d="M294.951,183.302c-0.086-0.013-0.15,0.04-0.163,0.117l-1.478,8.991
				c-0.013,0.077,0.04,0.15,0.117,0.163c0.091,0.002,0.151-0.047,0.163-0.117l1.478-8.991
				C295.08,183.387,295.028,183.314,294.951,183.302z"/>
			<path style="fill:#EB9076;" d="M261.345,226.692l-8.115-2.642c-0.074-0.024-0.154,0.017-0.178,0.091
				c-0.024,0.074,0.016,0.154,0.091,0.179l8.115,2.642c0.103,0.007,0.159-0.031,0.178-0.091
				C261.46,226.796,261.419,226.717,261.345,226.692z"/>
			<path style="fill:#EB9076;" d="M306.987,240.184l-4.812-5.851c-0.05-0.06-0.139-0.07-0.2-0.019
				c-0.06,0.049-0.069,0.139-0.019,0.199l4.813,5.851c0.028,0.034,0.068,0.052,0.109,0.052c0.031,0,0.064-0.01,0.09-0.032
				C307.028,240.333,307.037,240.244,306.987,240.184z"/>
			<path style="fill:#EB9076;" d="M299.294,235.463c-0.051-0.06-0.14-0.066-0.199-0.015c-0.059,0.051-0.066,0.14-0.015,0.2
				l4.058,4.718c0.028,0.033,0.068,0.049,0.107,0.049c0.033,0,0.066-0.011,0.092-0.034c0.059-0.051,0.066-0.14,0.015-0.2
				L299.294,235.463z"/>
			<path style="fill:#EB9076;" d="M296.035,236.449c-0.053-0.056-0.143-0.06-0.2-0.006c-0.057,0.054-0.059,0.143-0.005,0.2
				l3.255,3.444c0.028,0.029,0.065,0.044,0.103,0.044c0.035,0,0.07-0.013,0.097-0.039c0.057-0.054,0.059-0.143,0.005-0.2
				L296.035,236.449z"/>
		</g>
		<g>
			<path style="fill:#0E4164;" d="M273.958,200.304c0.012,0.069,0.071,0.118,0.139,0.118c0.101-0.015,0.153-0.088,0.139-0.165
				c-1.441-8.506-4.909-13.241-4.943-13.288c-0.046-0.063-0.135-0.075-0.198-0.029c-0.062,0.047-0.076,0.135-0.029,0.198
				C269.101,187.184,272.53,191.87,273.958,200.304z"/>
			<path style="fill:#0E4164;" d="M272.624,209.585c-0.064-0.044-0.152-0.03-0.197,0.034l-4.29,6.052
				c-0.045,0.064-0.03,0.152,0.034,0.197c0.025,0.017,0.054,0.026,0.082,0.026c0.044,0,0.088-0.021,0.116-0.06l4.29-6.052
				C272.703,209.718,272.687,209.63,272.624,209.585z"/>
			<path style="fill:#0E4164;" d="M308.607,193.591c-0.042-0.066-0.13-0.086-0.195-0.044c-0.066,0.042-0.086,0.129-0.044,0.195
				c0.057,0.09,5.692,9.078,4.715,17.074c-0.009,0.078,0.046,0.148,0.123,0.158c0.088,0.001,0.149-0.051,0.158-0.123
				C314.354,202.754,308.665,193.682,308.607,193.591z"/>
			<path style="fill:#0E4164;" d="M274.707,222.057c1.17,3.677,10.216,4.585,15.504,4.799c1.245,0.051,2.497,0.074,3.733,0.074
				c6.283,0,12.15-0.601,14.583-1.288c0.075-0.021,0.119-0.1,0.097-0.175c-0.021-0.075-0.096-0.119-0.175-0.098
				c-5.471,1.546-31.497,2.809-33.473-3.398c-1.941-6.101,2.173-14.51,2.214-14.594c0.035-0.07,0.006-0.155-0.064-0.19
				c-0.071-0.034-0.155-0.006-0.19,0.064C276.896,207.337,272.731,215.847,274.707,222.057z"/>
			<path style="fill:#0E4164;" d="M310.919,260.184c-27.299-1.117-39.082-9.37-39.198-9.454c-0.062-0.045-0.151-0.031-0.197,0.032
				c-0.045,0.064-0.031,0.152,0.033,0.198c0.116,0.084,11.956,8.386,39.352,9.507c0.081,0,0.144-0.06,0.147-0.136
				C311.059,260.253,310.998,260.187,310.919,260.184z"/>
		</g>
		<g>
			<path style="fill:#F29507;" d="M325.485,265.753c-0.024-0.075-0.101-0.115-0.179-0.091c-0.074,0.024-0.115,0.104-0.091,0.178
				c0.019,0.058,1.893,6.043,2.945,23.928c1.054,17.904,2.907,43.449,2.925,43.705c0.005,0.075,0.067,0.131,0.141,0.131
				c0.089-0.006,0.147-0.074,0.141-0.152c-0.018-0.256-1.871-25.799-2.924-43.701C327.389,271.831,325.504,265.811,325.485,265.753z
				"/>
			<path style="fill:#F29507;" d="M308.568,281.712c-3.148,1.507-8.007,7.704-8.213,7.967c-0.048,0.062-0.037,0.151,0.024,0.199
				c0.026,0.02,0.057,0.03,0.087,0.03c0.042,0,0.083-0.019,0.112-0.055c0.05-0.064,5.023-6.408,8.112-7.886
				c0.07-0.034,0.1-0.118,0.066-0.189C308.724,281.708,308.64,281.679,308.568,281.712z"/>
			<path style="fill:#F29507;" d="M357.65,371.019c-11.656-15.091-25.634-62.917-25.774-63.398
				c-0.023-0.075-0.103-0.119-0.175-0.096c-0.075,0.022-0.118,0.1-0.097,0.176c0.14,0.482,14.134,48.359,25.822,63.492
				c0.028,0.036,0.07,0.055,0.112,0.055c0.03,0,0.061-0.01,0.086-0.03C357.686,371.17,357.698,371.081,357.65,371.019z"/>
			<path style="fill:#F29507;" d="M295.78,289.625c-14.433,1.068-22.155-3.065-26.086-6.72c-4.255-3.956-5.116-8.221-5.124-8.263
				c-0.014-0.077-0.09-0.127-0.165-0.113c-0.077,0.015-0.127,0.089-0.112,0.166c0.008,0.043,0.88,4.385,5.195,8.404
				c3.54,3.298,10.111,6.98,21.802,6.98c1.426,0,2.93-0.055,4.512-0.172c0.078-0.006,0.137-0.074,0.131-0.152
				C295.925,289.677,295.868,289.616,295.78,289.625z"/>
		</g>
		<path style="opacity:0.47;fill:#FFFFFF;" d="M343.207,274.526c0,0,14.815,71.668,24.628,92.05
			C367.835,366.576,345.377,281.367,343.207,274.526z"/>
		<path style="opacity:0.47;fill:#FFFFFF;" d="M321.845,272.215c0,0-3.631,46.615,12.592,103.515
			C334.438,375.729,321.149,308.449,321.845,272.215z"/>
		<path style="opacity:0.25;fill:#FFFFFF;" d="M267.057,187.937c0,0-4.246,4.071-7.454,10.629
			C259.603,198.566,264.604,193.774,267.057,187.937z"/>
		<path style="opacity:0.25;fill:#FFFFFF;" d="M278.098,209.181c0,0,24.115-4.62,33.242,1.794
			C311.339,210.976,305.934,207.294,278.098,209.181z"/>
	</g>
	<path style="fill:#E4F0FF;" d="M222.695,161.884c6.196,0.786,10.582,6.446,9.796,12.642c-0.786,6.196-6.446,10.582-12.642,9.796
		c-6.196-0.786-10.582-6.446-9.796-12.642C210.839,165.483,216.499,161.098,222.695,161.884z"/>
	<g>
		<path style="fill:#6BB8DA;" d="M242.825,178.649c-0.892,7.032-7.338,12.026-14.369,11.134c-7.031-0.892-12.026-7.338-11.134-14.37
			c0.892-7.031,7.338-12.026,14.37-11.134C238.723,165.172,243.717,171.618,242.825,178.649z M218.517,175.565
			c-0.809,6.373,3.718,12.215,10.091,13.023c6.373,0.809,12.215-3.718,13.023-10.091c0.808-6.372-3.718-12.215-10.091-13.023
			C225.167,164.666,219.325,169.193,218.517,175.565z"/>
	</g>
	<g>
		<g>
			<path style="fill:#6BB8DA;" d="M238.115,134.015l-0.605-0.199c0.004-0.013,0.442-1.337,1.349-3.6l0.592,0.237
				C238.552,132.695,238.119,134.002,238.115,134.015z"/>
		</g>
		<g>
			<path style="fill:#6BB8DA;" d="M447.057,138.565c-0.026-2.571-0.141-5.18-0.34-7.757l0.635-0.049
				c0.201,2.591,0.316,5.215,0.342,7.8L447.057,138.565z M242.569,123.354l-0.576-0.273c1.099-2.316,2.289-4.657,3.534-6.957
				l0.561,0.303C244.849,118.718,243.665,121.048,242.569,123.354z M445.852,123.094c-0.38-2.581-0.854-5.148-1.407-7.63
				l0.623-0.139c0.556,2.497,1.033,5.08,1.416,7.676L445.852,123.094z M249.957,109.693l-0.544-0.332
				c1.349-2.216,2.771-4.421,4.226-6.553l0.527,0.359C252.717,105.291,251.301,107.486,249.957,109.693z M442.467,107.966
				c-0.767-2.495-1.637-4.952-2.586-7.306l0.592-0.239c0.955,2.37,1.832,4.845,2.603,7.357L442.467,107.966z M258.708,96.871
				l-0.507-0.387c1.581-2.072,3.229-4.113,4.898-6.066l0.484,0.414C261.923,92.777,260.283,94.808,258.708,96.871z M436.661,93.617
				c-1.191-2.312-2.496-4.565-3.877-6.699l0.536-0.347c1.392,2.151,2.708,4.424,3.909,6.754L436.661,93.617z M268.794,85.081
				l-0.46-0.442c1.804-1.878,3.678-3.715,5.568-5.457l0.432,0.469C272.454,81.385,270.59,83.212,268.794,85.081z M428.252,80.65
				c-1.615-2.004-3.352-3.941-5.163-5.755l0.451-0.45c1.827,1.83,3.579,3.784,5.209,5.806L428.252,80.65z M280.202,74.579
				l-0.401-0.496c2.025-1.64,4.117-3.223,6.216-4.703l0.367,0.521C284.296,71.374,282.216,72.948,280.202,74.579z M417.345,69.722
				c-1.983-1.604-4.087-3.133-6.253-4.545l0.349-0.534c2.183,1.424,4.305,2.966,6.305,4.583L417.345,69.722z M292.87,65.656
				l-0.33-0.546c2.221-1.347,4.509-2.627,6.802-3.805l0.291,0.567C297.353,63.043,295.078,64.316,292.87,65.656z M404.417,61.279
				c-2.241-1.169-4.6-2.266-7.011-3.261l0.243-0.59c2.429,1.002,4.805,2.107,7.064,3.285L404.417,61.279z M306.646,58.582
				l-0.25-0.587c2.378-1.013,4.826-1.953,7.274-2.794l0.207,0.603C311.443,56.64,309.011,57.575,306.646,58.582z M390.138,55.366
				c-2.401-0.769-4.909-1.47-7.453-2.084l0.15-0.62c2.559,0.617,5.081,1.323,7.497,2.097L390.138,55.366z M321.288,53.552
				l-0.163-0.617c2.484-0.66,5.039-1.244,7.593-1.735l0.121,0.627C326.299,52.315,323.759,52.896,321.288,53.552z M375.103,51.717
				c-2.482-0.43-5.061-0.799-7.668-1.096l0.072-0.633c2.619,0.298,5.211,0.669,7.704,1.101L375.103,51.717z M336.492,50.622
				l-0.078-0.633c2.545-0.314,5.155-0.55,7.756-0.702l0.037,0.637C341.618,50.074,339.023,50.309,336.492,50.622z M359.709,49.95
				c-2.596-0.155-5.204-0.236-7.753-0.242l0.001-0.638c2.561,0.006,5.182,0.088,7.789,0.243L359.709,49.95z"/>
		</g>
		<g>
			<path style="fill:#6BB8DA;" d="M447.132,150.305l-0.632-0.088c0.002-0.014,0.192-1.395,0.349-3.784l0.637,0.042
				C447.326,148.889,447.133,150.291,447.132,150.305z"/>
		</g>
	</g>
	<g>
		<path style="fill:#6BB8DA;" d="M451.068,105.18l12.204,32.299l-29.686-7.239L451.068,105.18z M461.057,135.519l-10.354-27.404
			l-14.832,21.262L461.057,135.519z"/>
	</g>
	<g>
		<path style="fill:#0C2B47;" d="M104.549,376.549c0,0-1.947,5.535-1.221,10.727c0.726,5.192-11.818-1.502-11.818-1.502
			s3.013-5.974,2.045-11.565C92.589,368.617,104.549,376.549,104.549,376.549z"/>
		<path style="fill:#0C2B47;" d="M168.627,381.091c0,0,0.751,1.858,0.909,2.636c0.158,0.779,8.049,7.148,13.145,5.874
			c5.096-1.274,2.784-5.902,2.784-5.902s-3.456-0.502-6.004-6.518C176.913,371.165,168.627,381.091,168.627,381.091z"/>
		<g>
			<path style="fill:#F29507;" d="M105.62,398.567H84.036c0.052-1.291,0.187-2.327,0.385-3.155c0.536-2.264,1.536-3.045,2.577-3.576
				c0,0,0.026-0.016,0.078-0.036c0.078-0.042,0.156-0.078,0.239-0.115c0.75-0.359,1.489-0.656,2.072-1.359
				c0.042-0.047,0.073-0.089,0.109-0.135c1.63-2.009,1.499-1.989,1.588-3.238c0.307-4.388,11.099-2.405,12.244,0.323
				c1.083,2.598,1.921,5.804,2.447,8.137c0.223,0.982,0.39,1.807,0.499,2.367C106.354,398.189,106.038,398.567,105.62,398.567z"/>
			<path style="fill:#0C2B47;" d="M106.118,398.567H83.889c-0.379,0-0.677-0.325-0.651-0.703c0.051-0.729,0.131-1.367,0.237-1.923
				c0.058-0.308,0.328-0.529,0.641-0.529h22.001c0.346,0,0.627,0.281,0.627,0.627v1.9
				C106.745,398.284,106.463,398.567,106.118,398.567z"/>
			<path style="fill:#FFFFFF;" d="M89.649,391.162c0,0,9.813-1.51,14.168,1.742c0,0-2.09-2.787-8.826-3.135
				c0,0,0.813-1.161,0.987-3.949c0,0-1.8-0.232-3.194,0.348C92.785,386.168,92.378,389.303,89.649,391.162z"/>
		</g>
		<g>
			<path style="fill:#F29507;" d="M164.705,396.161c0,0-0.55-3.162,1.375-5.705c1.925-2.543,2.818-5.095,3.3-6.534
				c0.481-1.439,5.293,4.61,10.173,3.716c4.88-0.894,5.705-3.34,5.911-3.939c0.206-0.598,8.317,2.358,11.067,4.488
				c2.75,2.131,9.348,1.689,11.273,1.703c1.925,0.015,0.619,3.521,0.619,3.521S184.364,398.154,164.705,396.161z"/>
			<path style="fill:#0C2B47;" d="M163.88,395.852c0-0.361,0.292-0.653,0.653-0.653h23.337c5.424,0,17.168-2.022,20.401-2.598
				c0.467-0.083,0.914,0.222,1.007,0.687l0.215,1.076c0.093,0.465-0.202,0.919-0.666,1.022c-3.2,0.707-14.83,3.181-20.958,3.181
				c-1.993,0-3.987-1.925-10.242-1.512v1.512h-13.095c-0.361,0-0.653-0.292-0.653-0.653V395.852z"/>
			<path style="fill:#FFFFFF;" d="M185.602,394.58c0.178-0.28,0.411-0.524,0.662-0.745c0.253-0.218,0.526-0.417,0.82-0.581
				c0.143-0.09,0.298-0.155,0.448-0.232c0.153-0.07,0.311-0.13,0.466-0.195c0.16-0.053,0.32-0.106,0.482-0.154l0.492-0.12
				l0.499-0.085c0.167-0.024,0.335-0.033,0.503-0.05c0.335-0.029,0.663-0.039,0.994-0.057c0.661-0.029,1.319-0.048,1.972-0.098
				c0.654-0.042,1.303-0.112,1.947-0.218c0.644-0.103,1.277-0.263,1.906-0.44c1.252-0.378,2.466-0.894,3.657-1.471
				c-1.106,0.726-2.298,1.334-3.558,1.777c-0.631,0.218-1.28,0.389-1.936,0.518c-0.658,0.121-1.323,0.196-1.987,0.245
				c-0.665,0.043-1.327,0.06-1.987,0.076c-0.664,0.014-1.312,0.019-1.951,0.118c-0.638,0.103-1.267,0.28-1.852,0.564
				c-0.297,0.133-0.574,0.305-0.843,0.492c-0.134,0.094-0.262,0.196-0.385,0.305C185.824,394.336,185.707,394.452,185.602,394.58z"
				/>
			<path style="fill:#FFFFFF;" d="M168.76,387.019c0.944,0.271,1.846,0.671,2.714,1.129c0.869,0.46,1.703,0.99,2.484,1.594
				c0.781,0.603,1.507,1.285,2.142,2.043c0.32,0.378,0.605,0.784,0.87,1.2c0.255,0.423,0.481,0.862,0.658,1.32
				c-0.284-0.4-0.567-0.793-0.877-1.163c-0.309-0.37-0.631-0.727-0.968-1.069c-0.675-0.683-1.403-1.307-2.161-1.897
				c-0.76-0.587-1.549-1.139-2.363-1.66C170.445,387.997,169.614,387.499,168.76,387.019z"/>
		</g>
		<path style="fill:#0E4164;" d="M166.837,217.407c0,0,7.971,43.02,7.546,75.331c-0.425,32.311,11.527,89.706,11.527,89.706
			s-9.826,4.157-16.629,2.078c0,0-28.91-65.425-20.832-90.509c0,0-14.761-43.617-16.581-63.327
			C130.049,210.976,166.837,217.407,166.837,217.407z"/>
		<path style="fill:#0E4164;" d="M163.754,216.566c0,0-4.251,17.077-15.305,26.43c0,0-11.054,41.664-20.832,66.748
			c-9.778,25.084-20.407,72.7-20.407,72.7s-7.653,4.677-17.856,0c0,0,2.551-62.496,16.156-94.383c0,0,1.701-61.221,15.093-78.652
			L163.754,216.566z"/>
		<path style="fill:#FFC9C1;" d="M212.139,235.237l2.925,4.045c0,0-1.085,4.176,1.675,6.723c2.76,2.548,1.626-3.754,1.626-3.754
			s19.534,0,21.799,0c2.265,0,2.265-2.191-2.76-2.191c-5.025,0-13.4-1.851-17.443-7.785L212.139,235.237z"/>
		<path style="fill:#EB334B;" d="M158.865,135.45l-21.045,4.66c0,0-11.479,45.384-17.218,69.299c0,0,18.813,18.865,46.235,7.998
			c0,0,10.48-17.398,12.074-35.891c0,0,7.376,19.603,12.159,27.894c4.783,8.29,21.682,27.741,21.682,27.741s3.72-1.382,8.609-4.57
			l-21.045-35.606l-13.655-42.211c-0.486-1.501-1.484-2.783-2.82-3.623L158.865,135.45z"/>
		<path style="opacity:0.43;fill:#FFFFFF;" d="M142.5,167.226c0,0,1.609,14.344,19.016,28.433
			C161.516,195.658,145.332,177.531,142.5,167.226z"/>
		<path style="fill:#FCB93C;" d="M166.704,151.893l-16.797,55.422l8.949,8.439l7.848-7.327
			C166.704,208.426,171.469,167.828,166.704,151.893z"/>
		<path style="fill:#89B6E3;" d="M190.601,207.297l-25.837-2.947c-1.509-0.172-2.551-1.592-2.264-3.083l8.013-41.563
			c0.256-1.326,1.482-2.237,2.825-2.099l25.842,2.648c1.521,0.156,2.582,1.581,2.294,3.083l-8.019,41.862
			C193.2,206.537,191.955,207.452,190.601,207.297z"/>
		<path style="fill:#648FBA;" d="M163.632,202.399l8.013-41.563c0.256-1.326,1.482-2.237,2.825-2.099l25.842,2.648
			c0.333,0.034,0.639,0.138,0.919,0.282c-0.387-0.758-1.132-1.32-2.051-1.414l-25.842-2.648c-1.343-0.138-2.569,0.773-2.825,2.1
			l-8.013,41.563c-0.226,1.172,0.376,2.291,1.375,2.803C163.621,203.573,163.518,202.994,163.632,202.399z"/>
		<path style="fill:#FFC9C2;" d="M152.584,187.951l5.363-0.545c0,0,8.393-4.523,9.434-4.721s8.122-0.277,8.755-0.206
			c0.633,0.071,4.731,3.914,6.018,4.531c1.286,0.617-0.871,2.235-7.072-1.686l-4.234,0.839c0,0,4.247,1.107,5.082,1.631
			c0.835,0.524,4.298,4.59,6.326,6.184c2.028,1.593-4.077,1.077-7.111-2.93l-5.132-1.336c0,0-0.384,0.529-0.34,0.744
			c0.044,0.215,3.79,2.043,4.567,2.85c0.777,0.807,2.946,3.577,3.175,5.331c0.229,1.754-1.52,0.807-2.036,0.024
			c-0.516-0.783-4.342-4.953-6.614-5.213c0,0-0.432,0.383-0.297,0.587c0.135,0.204,2.368,1.516,2.931,1.926
			c0.564,0.41,2.17,2.623,2.146,3.03s-0.529,1.864-1.509,1.045c-0.98-0.819-2.273-2.409-3.334-2.833
			c-1.061-0.424-3.919-1.128-3.919-1.128s-4.908,2.114-7.076,1.492c-2.169-0.621-3.204-1.746-3.519-2.076
			c-0.315-0.329-3.722,0.208-3.722,0.208L152.584,187.951z"/>
		<path style="fill:#EB334B;" d="M137.82,140.111l-2.819,0.648c-1.177,0.271-2.213,0.967-2.903,1.958
			c-4.149,5.962-18.791,28.251-22.03,50.265c-0.216,1.47,0.588,2.898,1.949,3.494c5.784,2.532,22.229,8.06,43.979,1.136
			c0,0,1.594-6.998,1.275-11.311l-29.654-1.018C127.617,185.282,140.052,162.962,137.82,140.111z"/>
		<path style="fill:#0C2B47;" d="M166.323,130.062c0,0-5.332-26.302,8.06-27.152c0,0-0.425-4.252,5.208-3.614
			c5.633,0.638,24.977,15.305,26.891,21.895C208.395,127.781,166.323,130.062,166.323,130.062z"/>
		<path style="fill:#FFC9C1;" d="M200.317,123.105c0,0-0.849,1.534-2.197,3.714c-0.158,0.26-0.323,0.526-0.498,0.798
			c-3.386,5.373-9.234,13.662-13.248,13.877c-1.766,0.096-3.233-0.215-4.422-0.696c-2.82-1.138-4.082-3.239-4.082-3.239
			l-3.833,4.433c0,0.006-2.967,3.431-2.967,3.431l-2.414,2.801l-7.794-12.771l16.798-12.133c-1.489-1.28,2.123-5.741,4.461-5.956
			c2.338-0.209,1.489,3.188,1.489,3.188l4.461-3.188C192.238,122.256,200.317,123.105,200.317,123.105z"/>
		<path style="fill:#0C2B47;" d="M185.673,121.99c0,0,2.98-0.827,4.358,1.152c0.438,0.629,1.402,0.277,0.8-0.823
			c-0.602-1.1-2.171-1.454-3.757-1.281C185.489,121.212,184.476,122.302,185.673,121.99z"/>
		<path style="fill:#0C2B47;" d="M188.476,125.608c-0.417,0.653-1.105,0.96-1.536,0.684c-0.431-0.275-0.442-1.028-0.025-1.681
			c0.417-0.653,1.105-0.96,1.536-0.684C188.882,124.202,188.893,124.955,188.476,125.608z"/>
		<path style="fill:#0C2B47;" d="M198.12,126.819c-0.158,0.26-0.323,0.526-0.498,0.798c-0.561-0.606-1.342-1.121-2.372-1.115
			c-0.77,0.011-1.047-0.985,0.21-1.132C196.428,125.251,197.379,125.879,198.12,126.819z"/>
		<path style="fill:#0C2B47;" d="M195.349,130.018c-0.417,0.653-1.105,0.96-1.536,0.684c-0.431-0.275-0.442-1.028-0.025-1.682
			c0.417-0.653,1.105-0.96,1.536-0.684C195.755,128.611,195.766,129.364,195.349,130.018z"/>
		<g>
			<path style="fill:#EB9076;" d="M187.303,134.688c-0.039-0.001-0.074-0.014-0.102-0.036c-0.04-0.031-0.065-0.08-0.065-0.135
				c0.001-0.093,0.078-0.167,0.171-0.167l3.059,0.039l1.209-7.37c0.015-0.092,0.102-0.154,0.194-0.139
				c0.092,0.015,0.154,0.102,0.139,0.193l-1.233,7.513c-0.014,0.082-0.085,0.142-0.168,0.141L187.303,134.688z"/>
			<path style="fill:#EB9076;" d="M181.623,133.983c0.076-0.051,0.172-0.033,0.213,0.041c2.124,3.791,5.748,4.079,5.785,4.082
				c0.085,0.005,0.143,0.083,0.127,0.171c-0.015,0.089-0.097,0.157-0.182,0.151c-0.027-0.002-1.926-0.149-3.814-1.63
				c-0.777-0.61-1.552-1.446-2.193-2.59C181.518,134.135,181.547,134.034,181.623,133.983z"/>
		</g>
		<g>
			<path style="fill:#0E4164;" d="M172.467,106.064c-0.101-0.056-0.231-0.019-0.288,0.084c-0.053,0.096-5.257,9.738-4.271,19.407
				c0.011,0.109,0.103,0.191,0.211,0.191c0.138-0.013,0.223-0.117,0.211-0.234c-0.973-9.535,4.169-19.065,4.221-19.16
				C172.608,106.25,172.57,106.12,172.467,106.064z"/>
			<path style="fill:#0E4164;" d="M201.424,120.788c-16.996-3.409-24.978-15.957-25.056-16.083c-0.062-0.1-0.194-0.13-0.293-0.068
				c-0.099,0.062-0.13,0.193-0.068,0.293c0.08,0.128,8.151,12.829,25.333,16.275c0.142,0.004,0.23-0.065,0.25-0.166
				C201.613,120.923,201.538,120.811,201.424,120.788z"/>
			<path style="fill:#0E4164;" d="M204.936,120.123c-4.801-6.756-24.96-17.988-25.815-18.463c-0.103-0.057-0.232-0.019-0.289,0.083
				c-0.057,0.102-0.02,0.232,0.083,0.289c0.208,0.116,20.93,11.66,25.675,18.338c0.042,0.058,0.107,0.089,0.173,0.089
				c0.043,0,0.086-0.013,0.123-0.039C204.982,120.351,205.004,120.218,204.936,120.123z"/>
		</g>
		<path style="fill:#FFB2A8;" d="M179.554,121.142c-0.867,0.948-1.905,1.411-2.319,1.033c-0.414-0.378-0.046-1.453,0.821-2.402
			c0.867-0.948,1.905-1.411,2.318-1.033C180.789,119.119,180.421,120.194,179.554,121.142z"/>
		<path style="fill:#FFB2A8;" d="M179.952,140.798c-2.82-1.138-4.082-3.239-4.082-3.239l-3.833,4.433
			c-0.011-0.289-0.311-10.225,4.433-16.243C176.47,125.749,175.128,136.863,179.952,140.798z"/>
		<g>
			<path style="fill:#F29507;" d="M166.53,149.03l-14.296,3.364c-0.202-1.033-1.281-7.676,2.658-14.954
				c0.037-0.069,0.012-0.155-0.057-0.192c-0.069-0.038-0.155-0.011-0.192,0.057c-4.316,7.976-2.673,15.22-2.656,15.292
				c0.015,0.065,0.074,0.109,0.138,0.109c0.033-0.004,14.47-3.401,14.47-3.401c0.076-0.018,0.123-0.094,0.105-0.17
				C166.682,149.059,166.609,149.01,166.53,149.03z"/>
			<path style="fill:#F29507;" d="M172.504,144.848c-0.067,0.041-0.087,0.128-0.047,0.195c1.916,3.105,3.059,8.614,3.331,10.035
				l-8.483-6.025c-0.064-0.046-0.152-0.03-0.198,0.033c-0.045,0.064-0.03,0.152,0.034,0.197l8.768,6.228
				c0.024,0.018,0.053,0.026,0.082,0.026c0.026,0,0.053-0.007,0.075-0.022c0.049-0.031,0.074-0.087,0.064-0.144
				c-0.012-0.068-1.202-6.863-3.432-10.478C172.657,144.828,172.57,144.808,172.504,144.848z"/>
			<path style="fill:#F29507;" d="M139.34,161.777c-0.009,0.078,0.047,0.148,0.125,0.156c0.087,0.001,0.148-0.053,0.156-0.125
				c1.31-11.805-1.49-19.784-1.518-19.864c-0.026-0.074-0.109-0.111-0.181-0.085c-0.074,0.027-0.112,0.108-0.086,0.181
				C137.865,142.119,140.642,150.037,139.34,161.777z"/>
			<path style="fill:#F29507;" d="M157.276,186.159l-29.436-1.01l8.748-17.861c0.034-0.07,0.005-0.155-0.065-0.189
				c-0.071-0.033-0.154-0.006-0.19,0.065l-8.844,18.057c-0.021,0.043-0.019,0.094,0.006,0.135c0.025,0.041,0.069,0.067,0.117,0.069
				l29.515,1.013c-0.021,1.03-0.191,7.528-1.248,11.069c-1.054,0.417-15.368,5.828-35.248,1.66
				c-0.079-0.017-0.151,0.033-0.168,0.109c-0.016,0.077,0.033,0.152,0.11,0.168c5.49,1.151,10.556,1.574,15.04,1.574
				c12.387,0,20.33-3.23,20.437-3.275c0.039-0.016,0.068-0.049,0.081-0.09c1.173-3.854,1.281-11.276,1.282-11.35
				C157.413,186.225,157.353,186.162,157.276,186.159z"/>
			<path style="fill:#F29507;" d="M126.317,185.486c-0.006-0.078-0.063-0.146-0.152-0.13c-0.055,0.004-5.558,0.461-9.785,3.208
				c-0.066,0.043-0.084,0.13-0.042,0.196c0.027,0.042,0.072,0.064,0.119,0.064c0.026,0,0.053-0.007,0.077-0.023
				c4.166-2.707,9.599-3.159,9.654-3.163C126.265,185.632,126.323,185.563,126.317,185.486z"/>
			<path style="fill:#F29507;" d="M150.049,198.566c0.072,0,0.134-0.055,0.141-0.129l1.038-11.335
				c0.007-0.078-0.05-0.147-0.128-0.154c-0.081-0.009-0.147,0.05-0.154,0.128l-1.038,11.335c-0.007,0.078,0.05,0.147,0.128,0.154
				C150.041,198.565,150.044,198.566,150.049,198.566z"/>
			<path style="fill:#F29507;" d="M218.68,229.119c-0.036-0.069-0.122-0.095-0.191-0.059l-8.02,4.246
				c-0.069,0.036-0.095,0.122-0.059,0.191c0.025,0.048,0.074,0.075,0.125,0.075c0.023,0,0.045-0.005,0.066-0.017l8.02-4.246
				C218.691,229.274,218.717,229.189,218.68,229.119z"/>
		</g>
		<path style="fill:#EB334B;" d="M158.862,135.453l2.654-1.917c0,0-4.422,0.389-6.529,2.773L158.862,135.453z"/>
		<polygon style="fill:#FCB93C;" points="163.147,150.116 167.081,154.959 170.087,151.375 167.01,149.191 		"/>
		<path style="opacity:0.43;fill:#FFFFFF;" d="M133.673,144.968c0,0-17.028,23.498-20.425,43.855L133.673,144.968z"/>
		<path style="opacity:0.43;fill:#FFFFFF;" d="M129.667,202.576c0,0,11.18,16.657,34.087,13.99
			C163.754,216.566,139.858,223.147,129.667,202.576z"/>
		<path style="opacity:0.43;fill:#FFFFFF;" d="M199.494,198.566l17.74,29.299C217.234,227.865,204.779,214.183,199.494,198.566z"/>
		<g>
			<path style="fill:#0C2B47;" d="M162.396,221.328c0.023-0.075-0.02-0.154-0.095-0.176c-0.077-0.023-0.154,0.02-0.176,0.094
				c-0.046,0.152-4.699,15.26-13.757,21.634c-0.041,0.029-10.863,37.483-10.863,37.483c-0.021,0.075,0.022,0.154,0.097,0.175
				c0.101,0.006,0.158-0.035,0.175-0.097l10.795-37.359C157.683,236.636,162.35,221.48,162.396,221.328z"/>
			<path style="fill:#0C2B47;" d="M149.112,295.078c-0.055-0.056-0.144-0.056-0.2-0.002c-0.056,0.055-0.057,0.144-0.002,0.2
				l9.846,10.065c0.028,0.028,0.065,0.042,0.101,0.042c0.036,0,0.071-0.013,0.099-0.04c0.056-0.055,0.057-0.144,0.002-0.2
				L149.112,295.078z"/>
			<path style="fill:#0C2B47;" d="M106.407,301.706c0.085-0.004,0.145-0.07,0.142-0.148l-0.566-12.035
				c-0.004-0.078-0.068-0.148-0.148-0.135c-0.078,0.004-0.138,0.07-0.135,0.148l0.566,12.035
				C106.269,301.647,106.332,301.706,106.407,301.706z"/>
			<path style="fill:#0C2B47;" d="M146.845,242.297c0.025-0.074-0.016-0.154-0.09-0.179c-0.128-0.043-12.961-4.215-26.337-0.001
				c-0.075,0.023-0.116,0.103-0.092,0.177c0.019,0.06,0.075,0.099,0.135,0.099c13.328-4.192,26.077-0.049,26.205-0.007
				C146.741,242.412,146.82,242.371,146.845,242.297z"/>
			<path style="fill:#0C2B47;" d="M149.002,245.228c-0.078,0.005-0.137,0.072-0.132,0.15c0.009,0.158,1.047,15.824,5.692,21.735
				c0.028,0.036,0.069,0.054,0.111,0.054c0.031,0,0.061-0.01,0.087-0.03c0.061-0.048,0.072-0.137,0.024-0.199
				c-4.59-5.842-5.622-21.421-5.632-21.577C149.148,245.282,149.08,245.219,149.002,245.228z"/>
			<path style="fill:#0C2B47;" d="M131.844,283.562c-0.072-0.022-0.153,0.019-0.176,0.094c-0.059,0.195-5.959,19.612-10.25,32.297
				c-4.405,13.025-14.072,48.417-15.717,62.599c-0.009,0.078,0.046,0.148,0.124,0.157c0.087,0.001,0.148-0.052,0.156-0.124
				c1.643-14.165,11.302-49.526,15.705-62.541c4.292-12.689,10.193-32.11,10.252-32.305
				C131.961,283.664,131.919,283.585,131.844,283.562z"/>
		</g>
		<path style="opacity:0.29;fill:#FFFFFF;" d="M165.287,235.237c0,0,7.001,34.613,5.695,65.33
			c-1.305,30.717,11.005,78.001,11.005,78.001s-15.915-39.281-14.292-77.814C169.317,262.221,165.287,235.237,165.287,235.237z"/>
		<path style="opacity:0.29;fill:#FFFFFF;" d="M121.316,216.404c0,0-12.329,21.427-11.283,74.382
			C110.033,290.786,111.455,256.371,121.316,216.404z"/>
		<path style="opacity:0.29;fill:#FFFFFF;" d="M103.718,304.109c0,0-11.91,35.112-9.069,75.872
			C94.648,379.98,97.454,326.187,103.718,304.109z"/>
	</g>
</g>
</svg>
