<svg width="1159" height="876" viewBox="0 0 1159 876" fill="none" xmlns="http://www.w3.org/2000/svg">
<path opacity="0.4" d="M873.062 823.39C829.862 823.39 789.512 824.75 755.222 827.09C710.622 821.76 647.042 818.42 576.462 818.42C520.342 818.42 468.662 820.53 427.412 824.08L423.612 850.4H384.272L380.972 829.33C350.332 833.88 332.172 839.53 332.172 845.66C332.172 860.7 441.542 872.89 576.462 872.89C631.922 872.89 683.052 870.83 724.062 867.36C763.782 871.26 815.932 873.64 873.062 873.64C997.512 873.64 1098.41 862.4 1098.41 848.53C1098.41 834.66 997.522 823.42 873.062 823.42V823.39Z" fill="#98BFE2"/>
<path d="M952.611 199.71L952.141 55.2799C952.121 47.8099 958.091 41.6899 965.561 41.5399L1121.39 38.3899C1129.03 38.2399 1135.31 44.3599 1135.36 51.9999L1136.29 200.38C1136.34 208 1130.15 214.2 1122.53 214.16L966.231 213.37C958.711 213.33 952.631 207.24 952.601 199.72L952.611 199.71Z" fill="#F5F5F5"/>
<path d="M1008.46 96.8301H992.621V190.52H1008.46V96.8301Z" fill="#EFCA30"/>
<path d="M1008.46 96.8301H992.621V153.71H1008.46V96.8301Z" fill="#DD5853"/>
<path d="M1038.2 115.96H1022.36V189.34H1038.2V115.96Z" fill="#70A1BD"/>
<path d="M1097.66 140.15H1081.82V190H1097.66V140.15Z" fill="#EFCA30"/>
<path d="M1097.66 140.15H1081.82V157.78H1097.66V140.15Z" fill="#70A1BD"/>
<path d="M1067.93 80.1099H1052.09V189.34H1067.93V80.1099Z" fill="#540CDE"/>
<path d="M1067.93 80.1099H1052.09V100.45H1067.93V80.1099Z" fill="#EFCA30"/>
<path d="M1058.54 58.7023C1071.57 52.6587 1077.24 37.1951 1071.19 24.1633C1065.15 11.1316 1049.69 5.46662 1036.65 11.5102C1023.62 17.5538 1017.96 33.0174 1024 46.0492C1030.05 59.0809 1045.51 64.7459 1058.54 58.7023Z" fill="#DD5853"/>
<path d="M1036 36.36L1045.74 43.48L1057.33 28.77" stroke="white" stroke-width="2.42" stroke-linecap="round" stroke-linejoin="round"/>
<path d="M742.791 317.24C742.791 317.24 729.261 335.69 734.801 370.13C740.331 404.57 766.781 431.62 796.291 424.86C825.811 418.1 838.111 386.73 839.341 329.54C840.571 272.35 742.791 317.24 742.791 317.24Z" fill="#E89C3B"/>
<path d="M1045.02 250.12C1072.92 233.04 1068.2 195.36 1070.54 169.64C1073.36 148 1074.44 142.48 1077.32 142.77C1080.2 143.06 1082.11 153.49 1081.17 162.86C1081.12 163.38 1081.06 163.9 1080.99 164.41L1081.14 164.43C1081.56 159.78 1083.3 156.73 1086.08 156.96C1088.07 157.12 1089.77 159.15 1090.69 162.04C1091.77 159.75 1093.4 158.32 1095.2 158.47C1097.07 158.62 1098.67 160.41 1099.62 163.01C1100.6 161.02 1102.04 159.78 1103.63 159.91C1106.43 160.14 1108.59 164.38 1108.47 169.39C1108.44 170.59 1108.28 171.72 1108.01 172.75C1108.34 182.39 1113.31 199.72 1106.83 236.85C1098.21 286.29 1078.98 320.26 952.121 320.33L961.491 259.55C964.511 260.21 1014.53 268.75 1044.99 250.11L1045.02 250.12Z" fill="#E89C3B"/>
<path d="M1021.76 285.33C1021.32 281.94 1020.7 278.35 1020.04 274.97L1016.78 260.38C1004 263.05 956.38 251.77 929.19 253.99C896.05 249.89 852.37 250.71 812.9 269.12C786.64 281.37 800.65 311.13 819.9 316.38C819.9 316.38 828.65 372.4 835.65 409.16C835.65 409.16 854.911 421.41 888.171 421.41C921.431 421.41 949 411.33 949 411.33C949 411.33 957.61 365.82 959.94 321.63L960.74 321.01C995.6 319.9 1021.65 315.35 1021.65 315.35C1021.65 315.35 1023.68 300.3 1021.75 285.33H1021.76Z" fill="#540CDE"/>
<path d="M913.311 258.72C929.911 245.13 1000.75 263.73 1016.78 260.38C1016.78 260.38 1020.31 274.05 1021.76 285.33C1023.69 300.29 1021.66 315.35 1021.66 315.35C1021.66 315.35 993.331 320.3 956.221 321.14C956.221 321.14 853.451 307.72 913.311 258.72Z" fill="#540CDE"/>
<path style="mix-blend-mode:overlay" opacity="0.49" d="M1021.76 285.33C1021.32 281.94 1020.7 278.35 1020.04 274.97L1016.78 260.38C1004 263.05 956.38 251.77 929.19 253.99C896.05 249.89 852.37 250.71 812.9 269.12C786.64 281.37 800.65 311.13 819.9 316.38C819.9 316.38 828.65 372.4 835.65 409.16C835.65 409.16 854.911 421.41 888.171 421.41C921.431 421.41 949 411.33 949 411.33C949 411.33 957.61 365.82 959.94 321.63L960.74 321.01C995.6 319.9 1021.65 315.35 1021.65 315.35C1021.65 315.35 1023.68 300.3 1021.75 285.33H1021.76Z" fill="url(#paint0_linear_201_3)"/>
<path d="M1007.67 315.89C1008.02 312.34 1008.22 308.77 1008.31 305.2C1008.4 301.44 1008.37 297.68 1008.23 293.92C1008.09 290.13 1007.84 286.35 1007.47 282.58C1007.11 278.93 1006.65 275.28 1006.05 271.66C1005.5 268.33 1004.84 265.02 1004.02 261.75C1003.92 261.36 1003.82 260.98 1003.72 260.59C1003.56 259.97 1002.59 260.23 1002.76 260.86C1003.61 264.06 1004.29 267.3 1004.86 270.56C1005.48 274.13 1005.97 277.72 1006.35 281.32C1006.74 285.07 1007.02 288.82 1007.19 292.58C1007.36 296.33 1007.41 300.09 1007.35 303.84C1007.29 307.44 1007.12 311.04 1006.8 314.63C1006.76 315.05 1006.72 315.47 1006.68 315.89C1006.65 316.16 1006.93 316.39 1007.18 316.39C1007.47 316.39 1007.65 316.16 1007.68 315.89H1007.67Z" fill="#EEEEF1"/>
<path d="M1090.54 160.84C1090.73 164.99 1090.54 169.16 1089.96 173.28C1089.92 173.56 1090.34 173.67 1090.38 173.4C1090.97 169.24 1091.16 165.04 1090.97 160.85C1090.96 160.57 1090.52 160.57 1090.53 160.85L1090.54 160.84Z" fill="#0C0B36"/>
<path d="M1100.05 162.54C1100.36 166.56 1100.1 170.6 1099.24 174.54C1099.18 174.81 1099.6 174.93 1099.66 174.66C1100.53 170.69 1100.8 166.6 1100.48 162.55C1100.46 162.27 1100.02 162.27 1100.04 162.55L1100.05 162.54Z" fill="#0C0B36"/>
<path d="M1099.39 173.39C1099.12 175.19 1099.35 177.22 1100.7 178.56C1101.97 179.82 1103.88 180.04 1105.47 179.29C1106.36 178.87 1107.12 178.15 1107.52 177.24C1107.63 176.98 1107.26 176.76 1107.14 177.02C1106.49 178.49 1104.89 179.38 1103.3 179.29C1101.7 179.2 1100.45 178.01 1099.99 176.52C1099.69 175.55 1099.67 174.51 1099.82 173.51C1099.86 173.23 1099.44 173.12 1099.4 173.39H1099.39Z" fill="#0C0B36"/>
<path d="M1090.06 172.78C1089.93 174.84 1091.31 176.86 1093.3 177.45C1094.73 177.88 1096.44 177.77 1097.73 176.99C1098.6 176.46 1099.2 175.63 1099.53 174.67C1099.61 174.44 1099.24 174.34 1099.16 174.57C1098.63 176.13 1097.29 177.09 1095.67 177.27C1094.15 177.44 1092.58 177.05 1091.53 175.87C1090.78 175.03 1090.37 173.91 1090.44 172.78C1090.46 172.53 1090.07 172.54 1090.06 172.78Z" fill="#0C0B36"/>
<path d="M1076.05 180.44C1077.65 178.8 1079.39 177.31 1081.26 175.99C1082.18 175.34 1083.12 174.73 1084.1 174.16C1085.09 173.58 1086.17 172.94 1087.35 172.89C1089.2 172.82 1090.4 174.47 1090.65 176.15C1090.95 178.17 1089.81 180.03 1088.57 181.52C1087.76 182.49 1086.88 183.41 1086.02 184.33C1085.03 185.39 1084.05 186.45 1083.06 187.52C1082.87 187.73 1083.18 188.04 1083.37 187.83C1084.3 186.83 1085.23 185.83 1086.16 184.83C1087.01 183.92 1087.88 183.02 1088.68 182.07C1090 180.53 1091.27 178.62 1091.12 176.5C1091 174.85 1090.08 173.07 1088.4 172.58C1087.3 172.26 1086.16 172.61 1085.17 173.09C1084.07 173.62 1083.03 174.29 1082.01 174.96C1079.75 176.46 1077.65 178.2 1075.75 180.14C1075.55 180.34 1075.86 180.65 1076.06 180.45L1076.05 180.44Z" fill="#0C0B36"/>
<path d="M1081.36 162.64C1081.29 164.56 1081.25 166.48 1081.32 168.4C1081.38 169.92 1081.48 171.5 1081.92 172.97C1082.09 173.52 1082.31 174.08 1082.7 174.52C1082.89 174.73 1083.19 174.42 1083.01 174.21C1082.69 173.85 1082.51 173.38 1082.37 172.92C1082.17 172.28 1082.05 171.62 1081.97 170.95C1081.75 169.25 1081.72 167.52 1081.73 165.81C1081.73 164.75 1081.77 163.69 1081.81 162.63C1081.82 162.35 1081.38 162.35 1081.37 162.63L1081.36 162.64Z" fill="#0C0B36"/>
<path d="M1086.99 184.32C1088.94 185.44 1090.27 187.51 1090.48 189.75C1090.51 190.03 1090.94 190.03 1090.92 189.75C1090.7 187.35 1089.3 185.15 1087.21 183.94C1086.97 183.8 1086.74 184.18 1086.99 184.32Z" fill="#0C0B36"/>
<g style="mix-blend-mode:soft-light">
<path d="M1064.09 297.79C1063.2 292.06 1069.18 284.35 1077.45 280.57C1083.5 277.8 1087.92 278.47 1090.84 280.96C1086.33 287.52 1075.26 297.77 1065.17 301.44C1064.56 300.66 1064.26 298.87 1064.09 297.78V297.79Z" fill="#0C0B36"/>
</g>
<path d="M889.271 209.15C880.571 202.61 868.871 208.57 857.991 208.39C839.541 208.08 836.401 185.96 849.381 179.79C861.681 173.95 867.521 186.86 879.201 189.01C884.491 189.99 895.771 187.01 901.091 187.85C906.411 188.7 911.691 194.64 908.611 199.06C912.381 196.87 915.661 202.76 915.771 207.13C915.911 212.56 910.881 220.62 909.641 225.9C908.591 230.39 911.231 232.52 907.251 234.85C903.271 237.18 896.841 235.3 896.371 230.71" fill="#0C0B36"/>
<path d="M872.12 256.46L873.42 249.81C873.42 249.81 856.32 251.27 858.03 236.76C861 211.48 860.35 204.46 871.65 198.02C882.95 191.58 908.11 205.96 903.92 226.92L898.63 257.48C898.63 257.48 894.34 260.27 886.4 260.1C878.09 259.92 872.11 256.47 872.11 256.47L872.12 256.46Z" fill="#E89C3B"/>
<path d="M878.18 222.82C878.15 223.84 877.75 224.66 877.29 224.64C876.83 224.62 876.48 223.78 876.51 222.76C876.54 221.74 876.94 220.92 877.4 220.94C877.86 220.96 878.21 221.8 878.18 222.82Z" fill="#0C0B36"/>
<path d="M865.019 222.25C864.989 223.27 864.589 224.09 864.129 224.07C863.669 224.05 863.319 223.21 863.349 222.19C863.379 221.17 863.779 220.35 864.239 220.37C864.699 220.39 865.049 221.23 865.019 222.25Z" fill="#0C0B36"/>
<path d="M872.859 249.78C872.859 249.78 881.579 249.52 888.109 244L872.02 256.89L872.859 249.78Z" fill="#0C0B36"/>
<g style="mix-blend-mode:soft-light">
<path d="M896.572 230.11C896.362 225.25 892.192 221.45 887.252 221.63C882.322 221.8 878.492 225.88 878.712 230.74C878.922 235.6 883.092 239.4 888.032 239.22C892.962 239.05 896.782 234.97 896.572 230.11Z" fill="#0C0B36"/>
</g>
<path d="M862.8 229.14C862.69 226.57 861.45 224.33 859.6 222.78C859.14 226.72 858.67 231.29 858.02 236.75C858 236.93 858.02 237.08 858 237.26C860.97 235.75 862.95 232.66 862.8 229.14Z" fill="#E89C3B"/>
<g style="mix-blend-mode:soft-light">
<path d="M862.8 229.14C862.69 226.57 861.45 224.33 859.6 222.78C859.14 226.72 858.67 231.29 858.02 236.75C858 236.93 858.02 237.08 858 237.26C860.97 235.75 862.95 232.66 862.8 229.14Z" fill="#0C0B36"/>
</g>
<g style="mix-blend-mode:soft-light">
<path d="M868.97 215.73L871.34 215.64L871.911 228.71L866.23 228.92L868.97 215.73Z" fill="#0C0B36"/>
</g>
<path d="M879.439 214.82C879.339 215.51 878.269 215.92 877.049 215.73C875.829 215.55 874.919 214.84 875.019 214.16C875.119 213.47 876.189 213.06 877.409 213.25C878.629 213.43 879.539 214.14 879.439 214.82Z" fill="#0C0B36"/>
<path d="M866.372 214.01C866.612 214.66 865.872 215.53 864.722 215.94C863.562 216.35 862.432 216.16 862.182 215.5C861.942 214.85 862.682 213.98 863.832 213.57C864.992 213.16 866.122 213.35 866.372 214.01Z" fill="#0C0B36"/>
<path d="M911.819 230.16C911.629 225.9 907.98 222.58 903.66 222.73C899.34 222.88 895.99 226.46 896.18 230.71C896.37 234.97 900.019 238.29 904.339 238.14C908.659 237.99 912.009 234.41 911.819 230.16Z" fill="#E89C3B"/>
<path d="M777.981 362.21C778.231 365.33 779.371 368.32 781.181 370.87C782.981 373.42 785.411 375.53 788.211 376.9C789.791 377.67 791.481 378.21 793.221 378.46C793.471 378.5 793.581 378.11 793.331 378.08C790.301 377.65 787.451 376.35 785.071 374.43C782.701 372.52 780.781 370.02 779.601 367.2C778.941 365.61 778.521 363.92 778.381 362.21C778.361 361.96 777.961 361.95 777.981 362.21Z" fill="#0C0B36"/>
<path d="M905.692 226.99C903.112 226.62 900.482 228.7 900.402 231.34C900.402 231.61 900.802 231.61 900.812 231.34C900.882 228.99 903.272 227.05 905.582 227.38C905.842 227.42 905.952 227.02 905.692 226.98V226.99Z" fill="#0C0B36"/>
<path d="M868.59 198.76C868.8 202.98 872.63 206.22 876.6 207.83C880.57 209.44 884.94 209.97 888.84 211.76C892.74 213.55 896.29 217.22 895.91 221.43C895.81 222.58 895.42 223.76 895.81 224.85C896.24 226.04 897.57 226.76 898.84 226.77C900.12 226.78 901.33 226.2 902.33 225.42C904.95 223.39 906.32 220.04 906.4 216.74C906.48 213.44 905.39 210.19 903.8 207.27C900.75 201.67 895.69 197.02 889.58 194.99C883.47 192.97 876.34 193.78 871.25 197.61" fill="#0C0B36"/>
<path d="M851.5 259.41C855.06 262.36 859.11 264.65 863.42 266.31C867.79 267.99 872.41 269.01 877.07 269.45C881.79 269.9 886.55 269.76 891.24 269.08C895.89 268.41 900.46 267.2 904.82 265.43C909.04 263.72 913.05 261.49 916.65 258.7C917.09 258.36 917.51 258.02 917.94 257.67C918.43 257.26 917.72 256.55 917.23 256.96C913.82 259.81 909.96 262.11 905.89 263.9C901.7 265.75 897.27 267.04 892.76 267.83C888.18 268.63 883.5 268.89 878.86 268.59C874.28 268.3 869.73 267.44 865.38 265.95C861.12 264.49 857.06 262.41 853.47 259.7C853.04 259.37 852.61 259.04 852.2 258.69C851.99 258.52 851.7 258.49 851.49 258.69C851.31 258.87 851.28 259.23 851.49 259.4L851.5 259.41Z" fill="#EEEEF1"/>
<path d="M871.882 234C871.882 234.91 870.962 235.65 869.822 235.65C868.682 235.65 867.762 234.91 867.762 234C867.762 233.09 868.682 232.35 869.822 232.35C870.962 232.35 871.882 233.09 871.882 234Z" fill="#0C0B36"/>
<path d="M824.712 813.73L822.942 839.99C822.942 839.99 805.252 851.3 770.062 852.3L794.092 832.26L798.642 807.31L824.702 813.73H824.712Z" fill="#0C0B36"/>
<path d="M943.47 811.34L944.36 837.64C944.36 837.64 927.91 850.68 893 855.23L914.89 832.86L916.9 807.58L943.48 811.33L943.47 811.34Z" fill="#0C0B36"/>
<path d="M835.892 410.16C835.892 410.16 895.852 429.85 949.472 410.66C949.472 410.66 970.202 457.23 954.302 522.53C938.402 587.83 913.752 703.68 950.982 821.09C950.982 821.09 928.962 834.18 904.872 826.24C904.872 826.24 850.772 699.43 851.202 619.45C851.202 619.45 809.302 694.23 829.802 824.01C829.802 824.01 811.622 836.34 786.872 827.65C786.872 827.65 756.472 748.13 753.912 683.12C751.352 618.11 769.902 551.52 793.272 501.1C811.352 462.08 830.442 424.29 835.882 410.15L835.892 410.16Z" fill="#66B1C4"/>
<path style="mix-blend-mode:overlay" d="M835.892 410.16C835.892 410.16 895.852 429.85 949.472 410.66C949.472 410.66 970.202 457.23 954.302 522.53C938.402 587.83 913.752 703.68 950.982 821.09C950.982 821.09 928.962 834.18 904.872 826.24C904.872 826.24 850.772 699.43 851.202 619.45C851.202 619.45 809.302 694.23 829.802 824.01C829.802 824.01 811.622 836.34 786.872 827.65C786.872 827.65 756.472 748.13 753.912 683.12C751.352 618.11 769.902 551.52 793.272 501.1C811.352 462.08 830.442 424.29 835.882 410.15L835.892 410.16Z" fill="url(#paint1_linear_201_3)"/>
<path d="M942.291 823.92C933.281 795.3 925.411 766.23 920.461 736.62C916.741 714.36 914.851 691.85 915.081 669.28C915.291 648.46 917.101 627.65 919.431 606.97C923.131 574.11 931.751 542.09 937.501 509.58C942.731 479.96 946.131 448.53 938.651 418.97C938.271 417.45 937.871 415.93 937.471 414.41C937.311 413.79 936.341 414.05 936.511 414.68C939.731 427.15 941.561 439.76 941.841 452.65C942.191 468.69 940.521 484.72 938.021 500.54C932.881 532.98 924.251 564.78 919.671 597.31C916.631 618.91 914.781 640.91 914.211 662.72C913.641 684.54 914.961 706.35 918.101 727.95C922.251 756.43 929.301 784.43 937.571 811.98C938.801 816.06 940.051 820.13 941.331 824.19C941.521 824.8 942.491 824.54 942.291 823.92Z" fill="#EEEEF1"/>
<path d="M823.141 751.81C823.141 751.81 807.331 602.09 869 501.43C869 501.43 851.3 545.82 850.25 621.7C850.25 621.7 845.84 633.09 841.19 644.78C825.65 683.84 823.131 751.81 823.131 751.81H823.141Z" fill="#0C0B36"/>
<path d="M905.302 419.28C908.322 423.63 912.232 427.32 916.692 430.18C921.142 433.03 926.152 435.06 931.342 436.08C934.282 436.66 937.292 436.92 940.282 436.84C940.922 436.82 940.922 435.82 940.282 435.84C935.092 435.98 929.912 435.07 925.052 433.25C920.232 431.44 915.732 428.73 911.912 425.27C909.762 423.33 907.822 421.15 906.172 418.77C905.812 418.25 904.942 418.74 905.312 419.27L905.302 419.28Z" fill="#EEEEF1"/>
<path d="M894.101 420.04C895.911 423.36 898.122 426.46 900.672 429.25C903.162 431.99 905.982 434.42 909.022 436.53C912.022 438.61 915.252 440.36 918.622 441.77C921.972 443.18 925.462 444.26 929.022 444.98C932.552 445.7 936.162 446.09 939.762 446.12C940.202 446.12 940.641 446.12 941.091 446.12C941.731 446.12 941.731 445.11 941.091 445.12C937.551 445.17 934.002 444.89 930.522 444.26C927.002 443.62 923.551 442.65 920.221 441.35C916.891 440.05 913.691 438.4 910.691 436.45C907.671 434.48 904.861 432.18 902.351 429.58C899.781 426.92 897.532 423.97 895.662 420.78C895.422 420.37 895.191 419.95 894.961 419.54C894.651 418.97 893.791 419.48 894.101 420.04Z" fill="#EEEEF1"/>
<path d="M953.709 426.65C952.009 428 949.959 428.83 947.809 429.12C947.539 429.16 947.399 429.5 947.459 429.74C947.539 430.03 947.809 430.13 948.069 430.09C950.389 429.77 952.569 428.81 954.409 427.36C954.619 427.19 954.589 426.83 954.409 426.65C954.199 426.44 953.919 426.48 953.699 426.65H953.709Z" fill="#EEEEF1"/>
<path d="M950.079 437.43C952.539 437.33 954.949 436.55 956.989 435.15C957.519 434.79 957.019 433.92 956.489 434.29C954.599 435.59 952.379 436.34 950.089 436.43C949.449 436.46 949.449 437.46 950.089 437.43H950.079Z" fill="#EEEEF1"/>
<path d="M868.711 417.9C867.841 421.32 867.181 424.78 866.651 428.27C866.081 432.05 865.681 435.86 865.421 439.68C865.151 443.59 865.021 447.5 865.041 451.42C865.061 455.24 865.211 459.06 865.531 462.87C865.831 466.41 866.261 469.94 866.911 473.43C866.981 473.83 867.061 474.24 867.141 474.64C867.271 475.27 868.231 475 868.101 474.37C867.431 470.99 866.961 467.57 866.641 464.14C866.291 460.38 866.101 456.6 866.051 452.82C866.001 448.94 866.091 445.06 866.321 441.19C866.551 437.39 866.911 433.59 867.431 429.82C867.921 426.32 868.541 422.83 869.371 419.39C869.471 418.99 869.571 418.58 869.671 418.18C869.831 417.56 868.861 417.29 868.711 417.91V417.9Z" fill="#EEEEF1"/>
<path d="M832.511 420.84C836.961 421.1 841.381 419.42 844.731 416.52C845.671 415.71 846.511 414.79 847.261 413.8C847.421 413.58 847.291 413.24 847.081 413.12C846.821 412.97 846.561 413.08 846.401 413.3C843.901 416.61 840.111 418.92 836.031 419.65C834.871 419.86 833.691 419.92 832.511 419.85C831.871 419.81 831.871 420.81 832.511 420.85V420.84Z" fill="#EEEEF1"/>
<path d="M829.34 429.22C833.49 429.67 837.74 429.14 841.69 427.79C845.64 426.44 849.32 424.29 852.39 421.46C854.1 419.88 855.62 418.09 856.88 416.13C857.23 415.59 856.36 415.09 856.02 415.63C853.84 419.01 850.87 421.84 847.46 423.96C844.03 426.09 840.16 427.51 836.16 428.1C833.91 428.43 831.61 428.46 829.34 428.22C829.07 428.19 828.84 428.47 828.84 428.72C828.84 429.01 829.07 429.19 829.34 429.22Z" fill="#EEEEF1"/>
<path d="M827.879 813.61C822.259 815.85 816.239 817.08 810.239 817.7C804.069 818.34 797.769 818.36 791.609 817.49C788.559 817.06 785.529 816.4 782.629 815.37C782.019 815.15 781.759 816.12 782.359 816.33C787.839 818.28 793.759 818.98 799.539 819.12C805.929 819.28 812.359 818.72 818.609 817.4C821.849 816.71 825.049 815.81 828.129 814.58C828.379 814.48 828.559 814.25 828.479 813.96C828.409 813.72 828.119 813.51 827.869 813.61H827.879Z" fill="#EEEEF1"/>
<path d="M948.671 810.11C943.091 812.34 937.241 813.87 931.331 814.9C924.901 816.02 918.351 816.51 911.821 816.34C908.131 816.24 904.441 815.93 900.801 815.36C900.531 815.32 900.261 815.43 900.181 815.71C900.111 815.95 900.261 816.28 900.531 816.32C907.131 817.36 913.841 817.59 920.501 817.17C926.931 816.76 933.341 815.76 939.581 814.13C942.751 813.3 945.891 812.29 948.931 811.07C949.181 810.97 949.361 810.74 949.281 810.46C949.211 810.22 948.921 810.01 948.671 810.11Z" fill="#EEEEF1"/>
<path d="M868.863 499.4C866.333 506.38 864.233 513.53 862.373 520.72C860.233 528.96 858.403 537.27 856.803 545.63C855.143 554.34 853.743 563.11 852.603 571.91C851.513 580.41 850.673 588.95 850.203 597.51C849.793 604.98 849.663 612.48 850.103 619.95C850.153 620.77 850.213 621.6 850.273 622.42C850.323 623.06 851.323 623.06 851.273 622.42C850.703 615.14 850.743 607.82 851.063 600.52C851.423 592.08 852.183 583.66 853.193 575.27C854.253 566.46 855.593 557.69 857.193 548.96C858.743 540.51 860.533 532.1 862.623 523.76C864.463 516.42 866.523 509.12 869.013 501.96C869.283 501.19 869.553 500.43 869.833 499.66C870.053 499.05 869.083 498.79 868.873 499.39L868.863 499.4Z" fill="#EEEEF1"/>
<path d="M895.462 227.8C896.622 222.95 901.302 219.91 905.912 221.02C910.522 222.13 913.312 226.96 912.152 231.81C910.992 236.66 906.312 239.7 901.702 238.59C897.092 237.48 894.302 232.66 895.462 227.8Z" fill="#B82AE8"/>
<path d="M904.12 228.49C904.85 228.66 905.58 228.22 905.75 227.49L908.35 216.65C910.03 209.65 908.69 202.51 904.69 197.04C901.88 193.2 896.49 188.35 886.72 187.79C882.22 187.53 878.14 188.99 878.87 189.17C879.61 189.35 881.27 189.31 886.04 189.76C892.93 190.41 898.95 193.8 902.5 198.64C906.04 203.47 907.21 209.8 905.72 216.02L903.12 226.86C902.95 227.59 903.39 228.32 904.12 228.49Z" fill="#B82AE8"/>
<path d="M899.331 228.73C899.951 226.13 902.461 224.5 904.931 225.1C907.401 225.69 908.901 228.28 908.271 230.88C907.651 233.48 905.141 235.11 902.671 234.51C900.201 233.92 898.701 231.33 899.331 228.73Z" fill="white"/>
<path d="M880.9 234.43C886.98 235.69 893.41 235.14 899.2 232.89C900.82 232.26 902.38 231.51 903.87 230.63C904.19 230.44 903.9 229.94 903.58 230.13C898.35 233.22 892.24 234.73 886.17 234.5C884.45 234.43 882.75 234.23 881.06 233.88C880.7 233.81 880.54 234.36 880.91 234.44L880.9 234.43Z" fill="white"/>
<path d="M877.54 233.17C876.88 235.2 877.97 237.39 879.98 238.04C881.99 238.7 884.17 237.58 884.83 235.55C885.49 233.52 884.4 231.33 882.39 230.68C880.38 230.02 878.2 231.14 877.54 233.17Z" fill="#540CDE"/>
<path style="mix-blend-mode:overlay" d="M748.301 258.16L890.081 167.86L973.721 315.44L835.401 354.47L748.301 258.16Z" fill="url(#paint2_linear_201_3)"/>
<path d="M817.614 248.46L743.975 258.718C742.334 258.947 741.189 260.462 741.418 262.103L756.427 369.853C756.655 371.494 758.171 372.639 759.812 372.41L833.451 362.153C835.092 361.924 836.237 360.409 836.008 358.768L820.999 251.018C820.771 249.377 819.255 248.232 817.614 248.46Z" fill="#E1E1E1"/>
<path d="M791.132 288.62C790.652 285.21 787.502 282.82 784.092 283.3C780.682 283.78 778.292 286.93 778.772 290.34C779.252 293.75 782.402 296.14 785.812 295.66C789.222 295.18 791.612 292.03 791.132 288.62Z" fill="#66B1C4"/>
<path d="M749.552 317.86C757.782 317.58 765.402 317.17 770.842 316.43C777.262 315.56 781.132 314.97 782.532 318.02C783.572 320.27 782.412 322.53 781.102 323.96C783.102 324.77 784.542 326.1 784.832 328.16C785.162 330.53 783.222 332.06 781.012 333.43C782.852 334.28 784.352 335.48 784.622 337.42C784.982 340.03 782.742 341.77 780.122 343.06C780.932 343.88 781.622 344.89 781.662 346.07C781.782 349.86 774.852 354.36 766.232 355.89C741.562 360.29 744.872 352.73 742.852 342.15C742.832 342.05 742.812 341.94 742.792 341.84C740.732 330.19 737.262 321.55 748.322 311.09L749.552 317.85V317.86Z" fill="#E89C3B"/>
<path d="M769.67 326.63C773.59 326.33 777.46 325.5 781.16 324.16C781.4 324.07 781.3 323.69 781.05 323.78C777.38 325.1 773.55 325.93 769.66 326.23C769.41 326.25 769.4 326.65 769.66 326.63H769.67Z" fill="#0C0B36"/>
<path d="M769.322 345.93C773.242 345.63 777.112 344.8 780.812 343.46C781.052 343.37 780.952 342.99 780.702 343.08C777.032 344.4 773.202 345.23 769.312 345.53C769.062 345.55 769.052 345.95 769.312 345.93H769.322Z" fill="#0C0B36"/>
<path d="M769.912 335.91C773.832 335.61 777.722 334.82 781.422 333.49C781.662 333.4 781.562 333.02 781.312 333.11C777.642 334.43 773.792 335.22 769.902 335.52C769.652 335.54 769.642 335.94 769.902 335.92L769.912 335.91Z" fill="#0C0B36"/>
<path d="M1055.73 606.38C1058.15 605.43 1060.63 604.62 1063.14 603.9C1064.41 587.18 1057.24 568.74 1041.31 576.32C1041.61 577.67 1042 579.01 1042.32 580.34C1042.68 581.87 1042.96 583.42 1042.92 585.01C1042.9 585.85 1042.8 586.69 1042.59 587.5C1042.34 588.49 1042.11 589.24 1041.08 589.57C1040.7 589.69 1040.16 589.54 1039.91 589.23C1037.62 586.36 1036.97 582.79 1036.55 579.21C1035.65 579.86 1034.74 580.56 1033.79 581.37C1018.31 594.55 1007.26 612.24 1000.02 631.65C995.361 644.14 992.301 657.22 990.621 670.44C989.291 680.87 986.471 695.91 989.551 706.19C990.291 708.66 992.131 710.96 994.641 711.5C997.161 712.04 1000.14 710.17 1000.13 707.59C1000.72 714.27 1008.16 713.14 1011.43 709.6C1036.71 682.13 1054.37 647.73 1062.02 611.19C1056.16 613.85 1050.16 616.08 1043.64 616.79C1042.66 616.9 1041.77 615.73 1042.48 614.87C1045.87 610.78 1050.88 608.3 1055.74 606.38H1055.73ZM1016.4 648.53C1011.9 655.62 1008.43 643.29 1007.73 640.53C1007.23 638.57 1005.21 633.71 1006.89 632.08C1007.78 631.22 1009.18 631.03 1010.37 631.39C1011.56 631.75 1012.55 632.58 1013.37 633.51C1015.75 636.2 1016.88 639.81 1017.22 643.39C1017.39 645.15 1017.35 647.04 1016.4 648.54V648.53Z" fill="#8BC167"/>
<path d="M988.622 723.99C982.372 705.75 971.202 689.67 960.162 673.86C951.812 661.9 939.972 651.67 924.292 655.47C919.042 656.74 914.362 659.63 911.522 664.25C906.302 672.72 908.692 683.86 913.122 692.76C920.982 708.57 936.582 723.41 950.242 734.34C950.512 734.55 950.802 734.73 951.072 734.94C951.032 734.91 954.772 733.7 955.032 733.65C957.002 733.27 958.992 733.03 960.992 732.93C961.832 732.89 962.752 732.89 963.442 733.38C966.212 735.36 960.492 737.25 959.312 737.59C958.872 737.71 956.452 738.61 956.042 738.35C959.922 740.78 963.972 742.98 967.752 745.59C969.742 746.96 971.772 748.35 974.102 749C976.422 749.65 979.132 749.43 980.942 747.83C984.982 744.26 978.882 741.16 985.082 739.36C987.922 738.54 989.742 735.59 990.082 732.66C990.422 729.73 989.582 726.79 988.622 723.99ZM922.062 673.8C920.982 673.25 919.962 672.59 918.962 671.94C918.552 671.67 918.102 671.34 918.052 670.85C918.012 670.42 918.322 670.02 918.702 669.83C919.082 669.64 919.532 669.61 919.952 669.62C922.722 669.62 925.722 670.41 927.842 672.23C928.342 672.66 928.372 673.52 928.122 674.08C927.842 674.69 927.232 675.08 926.552 675.07C924.942 675.04 923.462 674.52 922.052 673.81L922.062 673.8ZM955.522 712.17C955.112 712.64 954.342 712.87 953.722 712.69C953.692 712.69 953.682 712.71 953.652 712.72C950.282 713.3 946.722 712.4 943.502 711.43C940.112 710.41 936.702 709.12 933.692 707.24C932.422 706.45 932.542 704.75 933.912 704.14C937.392 702.58 941.402 702.83 945.002 703.84C948.852 704.92 952.542 706.93 955.352 709.8C955.992 710.45 956.172 711.44 955.532 712.18L955.522 712.17ZM963.162 693.14C962.952 695.88 961.212 698.52 959.762 700.97C959.082 700.99 958.722 700.19 958.602 699.52C958.222 697.45 958.422 695.28 959.112 693.29C959.252 692.89 961.802 688.48 961.992 688.77C962.972 690.25 963.272 691.71 963.162 693.14ZM985.592 729.73C985.032 731.16 984.232 732.5 983.242 733.67C983.142 733.79 983.022 733.91 982.872 733.91C982.762 733.91 982.662 733.84 982.572 733.76C981.732 733.05 981.302 731.93 981.252 730.83C981.212 729.73 981.522 728.64 981.962 727.63C982.542 726.28 985.472 723.84 986.212 726.49C986.362 727.03 986.252 727.6 986.102 728.15C985.962 728.68 985.792 729.21 985.582 729.72L985.592 729.73Z" fill="#8BC167"/>
<path d="M958.854 693.13C958.844 693.2 958.824 693.27 958.814 693.34C958.804 693.41 958.784 693.46 958.774 693.56C958.784 693.49 958.804 693.41 958.814 693.34C958.794 693.43 958.774 693.51 958.754 693.6C958.784 693.44 958.824 693.29 958.854 693.13Z" fill="#E3AE3D"/>
<path d="M1089.37 682.54C1087.9 683.11 1086.4 683.71 1084.8 683.72C1084.55 683.72 1084.28 683.71 1084.1 683.54C1083.95 683.39 1083.91 683.16 1083.89 682.95C1083.77 680.96 1085.44 679.27 1087.28 678.5C1088.75 677.89 1093.28 678.04 1094.24 676.97C1095.52 675.54 1093.73 671.89 1092.47 670.89C1090.32 669.17 1087.2 669.74 1084.55 670.48C1079.6 671.87 1074.77 673.61 1070.08 675.66C1069.92 675.73 1071.31 688.15 1070.78 689.63C1070.05 691.68 1066.13 694.36 1064.33 691.69C1063.87 691.01 1063.88 690.13 1063.91 689.31C1064.02 685.99 1064.4 682.51 1064.15 679.22C1051.05 684.93 1039.6 693.84 1029.98 704.57C1027.63 707.19 1022.62 711.51 1022.68 715.19C1022.71 717.4 1024.35 720.07 1024.68 722.37C1025.04 724.95 1025.02 727.58 1024.59 730.16C1024.49 730.75 1024.29 731.44 1023.73 731.63C1022.82 731.94 1022.19 730.72 1022 729.78C1021.26 725.91 1021.07 722.02 1020.65 718.14C1012.3 726.5 1007.84 740.18 1005.19 751.42C1004.55 754.12 1000.11 765.41 1002.94 767.16C1004.09 767.87 1022.2 760.09 1025.1 759.38C1040.44 755.6 1055.15 747.37 1065.75 734.41C1072.24 726.47 1078.29 718.11 1083.26 709.12C1087.27 701.85 1094.16 690.06 1093.5 681.53C1092.12 681.5 1090.76 682.02 1089.38 682.56L1089.37 682.54ZM1054.07 700.92C1053.79 705.2 1051.07 710.6 1049.59 712.67C1049.1 713.35 1048.09 714.03 1047.56 713.39C1047.39 713.18 1047.35 712.9 1047.32 712.63C1047.2 711.41 1047.2 709.23 1047.45 708.64C1047.11 704.68 1046.37 699.74 1049.47 696.62C1050.19 695.89 1051.37 695.33 1052.22 695.91C1053.74 696.94 1054.21 698.79 1054.07 700.92ZM1079.29 706.45C1075.11 708.84 1070.52 711.52 1065.67 712.07C1064.04 712.26 1059.67 712.46 1058.92 710.35C1058.03 707.83 1062.32 705.4 1064.08 704.57C1068.68 702.39 1073.78 701.27 1078.87 701.31C1080.01 701.31 1081.37 701.52 1081.88 702.54C1082.59 703.97 1081.04 705.45 1079.65 706.25C1079.53 706.32 1079.41 706.39 1079.29 706.46V706.45Z" fill="#8BC167"/>
<path d="M996.445 799.75C996.445 799.75 996.385 799.75 996.355 799.75C995.775 799.7 995.345 799.19 995.395 798.61C996.455 786.54 997.655 772.86 1004.27 761.92C1008.29 755.27 1013.94 750.26 1019.4 745.42L1050.33 717.99C1050.76 717.6 1051.43 717.64 1051.82 718.08C1052.21 718.52 1052.17 719.18 1051.73 719.57L1020.8 747C1015.46 751.74 1009.93 756.64 1006.08 763.02C999.725 773.54 998.545 786.96 997.505 798.8C997.455 799.35 996.995 799.76 996.455 799.76L996.445 799.75Z" fill="#1C0C03"/>
<path d="M991.714 821.51C991.214 821.51 990.774 821.15 990.674 820.65C989.084 812.06 989.434 803.19 989.764 794.61C989.994 788.73 990.224 782.66 989.834 776.75C988.114 750.75 974.674 727.91 962.204 708.54C961.894 708.05 962.034 707.4 962.524 707.08C963.014 706.77 963.664 706.91 963.984 707.4C976.594 726.99 990.194 750.11 991.944 776.61C992.344 782.63 992.104 788.76 991.874 794.69C991.544 803.16 991.204 811.91 992.744 820.27C992.854 820.84 992.474 821.39 991.904 821.5C991.844 821.51 991.774 821.52 991.714 821.52V821.51Z" fill="#1C0C03"/>
<path d="M993.533 811.01H993.513C992.933 811.01 992.463 810.52 992.473 809.94L993.173 762.39C993.363 749.81 993.553 736.79 995.503 724.14C999.323 699.36 1023.92 637.48 1033.06 617.04C1033.3 616.51 1033.92 616.27 1034.45 616.51C1034.98 616.75 1035.22 617.37 1034.98 617.9C1026.16 637.61 1001.31 700.22 997.583 724.46C995.653 736.97 995.463 749.91 995.283 762.42L994.583 809.97C994.583 810.55 994.103 811.01 993.533 811.01Z" fill="#1C0C03"/>
<path d="M967.574 846.24C967.574 846.24 1025.03 846.59 1025.06 846.24L1031.12 787.06H958.824C958.824 787.06 967.564 846.12 967.574 846.24Z" fill="#E8654B"/>
<g opacity="0.74">
<path d="M967.574 846.24C967.574 846.24 1025.03 846.59 1025.06 846.24L1031.12 787.06H958.824C958.824 787.06 967.564 846.12 967.574 846.24Z" fill="url(#paint3_linear_201_3)"/>
</g>
<path d="M1029.73 800.59L1029.92 798.69H960.531C960.621 799.31 960.711 799.94 960.811 800.59H1029.72H1029.73Z" fill="white"/>
<path opacity="0.74" d="M1055.73 606.38C1058.15 605.43 1060.63 604.62 1063.14 603.9C1064.41 587.18 1057.24 568.74 1041.31 576.32C1041.61 577.67 1042 579.01 1042.32 580.34C1042.68 581.87 1042.96 583.42 1042.92 585.01C1042.9 585.85 1042.8 586.69 1042.59 587.5C1042.34 588.49 1042.11 589.24 1041.08 589.57C1040.7 589.69 1040.16 589.54 1039.91 589.23C1037.62 586.36 1036.97 582.79 1036.55 579.21C1035.65 579.86 1034.74 580.56 1033.79 581.37C1018.31 594.55 1007.26 612.24 1000.02 631.65C995.361 644.14 992.301 657.22 990.621 670.44C989.291 680.87 986.471 695.91 989.551 706.19C990.291 708.66 992.131 710.96 994.641 711.5C997.161 712.04 1000.14 710.17 1000.13 707.59C1000.72 714.27 1008.16 713.14 1011.43 709.6C1036.71 682.13 1054.37 647.73 1062.02 611.19C1056.16 613.85 1050.16 616.08 1043.64 616.79C1042.66 616.9 1041.77 615.73 1042.48 614.87C1045.87 610.78 1050.88 608.3 1055.74 606.38H1055.73ZM1016.4 648.53C1011.9 655.62 1008.43 643.29 1007.73 640.53C1007.23 638.57 1005.21 633.71 1006.89 632.08C1007.78 631.22 1009.18 631.03 1010.37 631.39C1011.56 631.75 1012.55 632.58 1013.37 633.51C1015.75 636.2 1016.88 639.81 1017.22 643.39C1017.39 645.15 1017.35 647.04 1016.4 648.54V648.53Z" fill="url(#paint4_linear_201_3)"/>
<path opacity="0.74" d="M988.622 723.99C982.372 705.75 971.202 689.67 960.162 673.86C951.812 661.9 939.972 651.67 924.292 655.47C919.042 656.74 914.362 659.63 911.522 664.25C906.302 672.72 908.692 683.86 913.122 692.76C920.982 708.57 936.582 723.41 950.242 734.34C950.512 734.55 950.802 734.73 951.072 734.94C951.032 734.91 954.772 733.7 955.032 733.65C957.002 733.27 958.992 733.03 960.992 732.93C961.832 732.89 962.752 732.89 963.442 733.38C966.212 735.36 960.492 737.25 959.312 737.59C958.872 737.71 956.452 738.61 956.042 738.35C959.922 740.78 963.972 742.98 967.752 745.59C969.742 746.96 971.772 748.35 974.102 749C976.422 749.65 979.132 749.43 980.942 747.83C984.982 744.26 978.882 741.16 985.082 739.36C987.922 738.54 989.742 735.59 990.082 732.66C990.422 729.73 989.582 726.79 988.622 723.99ZM922.062 673.8C920.982 673.25 919.962 672.59 918.962 671.94C918.552 671.67 918.102 671.34 918.052 670.85C918.012 670.42 918.322 670.02 918.702 669.83C919.082 669.64 919.532 669.61 919.952 669.62C922.722 669.62 925.722 670.41 927.842 672.23C928.342 672.66 928.372 673.52 928.122 674.08C927.842 674.69 927.232 675.08 926.552 675.07C924.942 675.04 923.462 674.52 922.052 673.81L922.062 673.8ZM955.522 712.17C955.112 712.64 954.342 712.87 953.722 712.69C953.692 712.69 953.682 712.71 953.652 712.72C950.282 713.3 946.722 712.4 943.502 711.43C940.112 710.41 936.702 709.12 933.692 707.24C932.422 706.45 932.542 704.75 933.912 704.14C937.392 702.58 941.402 702.83 945.002 703.84C948.852 704.92 952.542 706.93 955.352 709.8C955.992 710.45 956.172 711.44 955.532 712.18L955.522 712.17ZM963.162 693.14C962.952 695.88 961.212 698.52 959.762 700.97C959.082 700.99 958.722 700.19 958.602 699.52C958.222 697.45 958.422 695.28 959.112 693.29C959.252 692.89 961.802 688.48 961.992 688.77C962.972 690.25 963.272 691.71 963.162 693.14ZM985.592 729.73C985.032 731.16 984.232 732.5 983.242 733.67C983.142 733.79 983.022 733.91 982.872 733.91C982.762 733.91 982.662 733.84 982.572 733.76C981.732 733.05 981.302 731.93 981.252 730.83C981.212 729.73 981.522 728.64 981.962 727.63C982.542 726.28 985.472 723.84 986.212 726.49C986.362 727.03 986.252 727.6 986.102 728.15C985.962 728.68 985.792 729.21 985.582 729.72L985.592 729.73Z" fill="url(#paint5_linear_201_3)"/>
<path opacity="0.74" d="M1089.37 682.54C1087.9 683.11 1086.4 683.71 1084.8 683.72C1084.55 683.72 1084.28 683.71 1084.1 683.54C1083.95 683.39 1083.91 683.16 1083.89 682.95C1083.77 680.96 1085.44 679.27 1087.28 678.5C1088.75 677.89 1093.28 678.04 1094.24 676.97C1095.52 675.54 1093.73 671.89 1092.47 670.89C1090.32 669.17 1087.2 669.74 1084.55 670.48C1079.6 671.87 1074.77 673.61 1070.08 675.66C1069.92 675.73 1071.31 688.15 1070.78 689.63C1070.05 691.68 1066.13 694.36 1064.33 691.69C1063.87 691.01 1063.88 690.13 1063.91 689.31C1064.02 685.99 1064.4 682.51 1064.15 679.22C1051.05 684.93 1039.6 693.84 1029.98 704.57C1027.63 707.19 1022.62 711.51 1022.68 715.19C1022.71 717.4 1024.35 720.07 1024.68 722.37C1025.04 724.95 1025.02 727.58 1024.59 730.16C1024.49 730.75 1024.29 731.44 1023.73 731.63C1022.82 731.94 1022.19 730.72 1022 729.78C1021.26 725.91 1021.07 722.02 1020.65 718.14C1012.3 726.5 1007.84 740.18 1005.19 751.42C1004.55 754.12 1000.11 765.41 1002.94 767.16C1004.09 767.87 1022.2 760.09 1025.1 759.38C1040.44 755.6 1055.15 747.37 1065.75 734.41C1072.24 726.47 1078.29 718.11 1083.26 709.12C1087.27 701.85 1094.16 690.06 1093.5 681.53C1092.12 681.5 1090.76 682.02 1089.38 682.56L1089.37 682.54ZM1054.07 700.92C1053.79 705.2 1051.07 710.6 1049.59 712.67C1049.1 713.35 1048.09 714.03 1047.56 713.39C1047.39 713.18 1047.35 712.9 1047.32 712.63C1047.2 711.41 1047.2 709.23 1047.45 708.64C1047.11 704.68 1046.37 699.74 1049.47 696.62C1050.19 695.89 1051.37 695.33 1052.22 695.91C1053.74 696.94 1054.21 698.79 1054.07 700.92ZM1079.29 706.45C1075.11 708.84 1070.52 711.52 1065.67 712.07C1064.04 712.26 1059.67 712.46 1058.92 710.35C1058.03 707.83 1062.32 705.4 1064.08 704.57C1068.68 702.39 1073.78 701.27 1078.87 701.31C1080.01 701.31 1081.37 701.52 1081.88 702.54C1082.59 703.97 1081.04 705.45 1079.65 706.25C1079.53 706.32 1079.41 706.39 1079.29 706.46V706.45Z" fill="url(#paint6_linear_201_3)"/>
<path opacity="0.45" d="M500.851 730.57C499.611 725.15 495.261 720.92 487.781 721.35C465.211 722.66 440.871 741.79 433.901 762.77C428.811 770.36 426.991 778.63 424.971 787.82C423.501 794.52 421.841 801.97 418.741 810.1H407.691L408.611 801.03C410.921 794.12 412.931 786.43 416.671 780.4C420.421 774.34 424.801 768.88 427.851 762.23C434.441 748.65 438.361 733.92 440.401 718.99C442.041 707.06 445.261 690.22 440.531 678.78C439.741 676.87 438.601 675.15 437.201 673.65C433.711 669.91 428.641 667.55 423.501 666.97C410.751 665.55 397.741 675.13 395.301 687.72C394.731 690.64 394.681 693.64 394.621 696.62C393.961 731.97 392.751 770.8 407.611 803.69L406.961 810.1H389.551C389.621 808.03 389.731 805.46 389.871 802.63C390.111 797.52 390.381 791.72 390.421 786.77C391.491 785.46 391.861 783.53 392.091 781.77C392.971 775.22 393.841 768.56 392.871 762.02C392.641 760.48 392.301 758.97 391.861 757.5C388.881 747.57 381.181 739.65 370.891 737.33C362.681 735.48 321.621 734.47 334.351 754.26C335.991 756.8 338.651 758.5 341.361 759.85C345.581 761.96 350.111 763.44 354.751 764.24C361.351 765.37 368.201 765.13 374.621 767.04C383.451 769.66 386.121 779.84 389.351 787.71C389.471 787.64 389.571 787.55 389.671 787.47C389.611 792.23 389.351 797.73 389.131 802.59C389.001 805.43 388.881 808.01 388.811 810.09H377.961L384.271 850.4H423.611L429.441 810.09H419.531C422.591 802.02 424.231 794.62 425.701 787.97C427.791 778.45 429.621 770.2 434.731 762.72C444.971 757.56 456.581 753.7 468.031 752.76C477.991 751.94 485.721 754.32 494.481 747.59C500.041 743.32 502.181 736.28 500.871 730.56L500.851 730.57ZM418.941 755.09C419.901 750.14 425.291 748.1 424.471 753.78C423.801 756.95 417.361 763.01 418.941 755.09ZM408.031 686.02C411.131 681.54 416.291 685.2 416.751 691.27C418.211 700.62 406.641 692.15 408.031 686.02ZM409.731 703.14C410.771 703.93 415.051 710.09 412.021 711.79C410.331 712.34 402.831 700.7 409.731 703.14ZM457.321 735.76C457.431 735.87 459.031 734.63 459.541 737.18C460.401 741.73 451.101 745.35 457.321 735.76ZM484.091 745.88C482.741 748.49 470.651 741.95 477.911 740.58C479.271 741.01 485.681 741.98 484.091 745.88ZM482.831 737.82C484.151 737.06 489.331 736.88 489.901 740.38C489.751 741.92 481.371 741.74 482.831 737.82Z" fill="#447CA8"/>
<path d="M539.873 804.9L537.863 835.78C537.863 835.78 517.103 849.12 475.723 850.4L503.923 826.77L509.203 797.43L539.863 804.91L539.873 804.9Z" fill="#0C0B36"/>
<path d="M454.172 735.05L442.582 763.74C442.582 763.74 418.682 769.89 378.992 758.13L413.182 744.54L427.402 718.34L454.172 735.06V735.05Z" fill="#0C0B36"/>
<path d="M632.012 707.021V850.401" stroke="black" stroke-width="4" stroke-miterlimit="10"/>
<path d="M692.492 848.98H573.922" stroke="black" stroke-width="5" stroke-miterlimit="10"/>
<path d="M732.311 632.87C724.211 657.15 711.881 679.301 691.981 695.821C683.381 702.961 676.131 706.611 665.541 709.461C652.751 712.911 639.451 713.72 626.271 714.16C607.041 714.8 587.781 714.751 568.551 714.011C556.641 713.551 543.051 711.951 536.181 702.201C524.231 685.241 536.351 664.28 553.181 658.17C569.371 652.29 586.581 649.521 601.891 641.261C633.951 623.971 642.381 584.931 650.781 552.581C656.891 529.051 660.801 503.17 677.761 484.36C699.091 460.7 732.781 465.35 746.941 493.85C757.111 514.32 749.721 539.551 747.531 561.061C745.071 585.241 740.011 609.781 732.311 632.881V632.87Z" fill="#66B1C4"/>
<path style="mix-blend-mode:overlay" d="M732.311 632.87C724.211 657.15 711.881 679.301 691.981 695.821C683.381 702.961 676.131 706.611 665.541 709.461C652.751 712.911 639.451 713.72 626.271 714.16C607.041 714.8 587.781 714.751 568.551 714.011C556.641 713.551 543.051 711.951 536.181 702.201C524.231 685.241 536.351 664.28 553.181 658.17C569.371 652.29 586.581 649.521 601.891 641.261C633.951 623.971 642.381 584.931 650.781 552.581C656.891 529.051 660.801 503.17 677.761 484.36C699.091 460.7 732.781 465.35 746.941 493.85C757.111 514.32 749.721 539.551 747.531 561.061C745.071 585.241 740.011 609.781 732.311 632.881V632.87Z" fill="url(#paint7_linear_201_3)"/>
<path d="M493.553 731.42C490.633 736.83 487.503 742.1 484.073 747.16C460.663 741.46 437.813 733.44 415.973 723.25C426.113 715.69 430.323 693.83 436.463 682.79C444.923 667.59 454.633 653.12 463.673 638.27C473.213 622.59 483.413 604.77 498.563 593.75C531.163 570.02 574.003 594.05 608.273 599.75C625.783 602.66 644.423 617.83 659.343 605.5C706.063 718.04 602.313 693.51 586.583 679.88C577.513 667.28 544.273 621.31 528.663 652.71C515.993 678.21 507.083 706.34 493.553 731.42Z" fill="#E8654B"/>
<path d="M493.553 731.42C490.633 736.83 487.503 742.1 484.073 747.16C460.663 741.46 437.813 733.44 415.973 723.25C426.113 715.69 430.323 693.83 436.463 682.79C444.923 667.59 454.633 653.12 463.673 638.27C473.213 622.59 483.413 604.77 498.563 593.75C531.163 570.02 574.003 594.05 608.273 599.75C625.783 602.66 644.423 617.83 659.343 605.5C706.063 718.04 602.313 693.51 586.583 679.88C577.513 667.28 544.273 621.31 528.663 652.71C515.993 678.21 507.083 706.34 493.553 731.42Z" fill="#540CDE"/>
<path d="M479.733 807.29C499.283 805.56 547.763 806.06 547.763 806.06C547.763 806.06 557.323 775.94 558.753 768.19C561.133 755.33 562.453 742.31 564.613 729.42C566.033 720.97 567.203 703.47 573.763 697.22C580.823 690.51 611.253 693.71 609.833 680.05C609.323 675.11 599.343 668.9 596.073 665.37C591.503 660.44 587.063 655.41 582.283 650.68C572.913 641.39 562.123 631.24 549.393 626.84C539.883 623.56 522.633 625.23 519.683 637.74C506.303 694.5 492.793 751.83 479.723 807.29H479.733ZM567.253 694.86L567.273 703.17C567.043 700.54 567.003 697.65 567.253 694.86Z" fill="#540CDE"/>
<path opacity="0.74" d="M493.553 731.42C490.633 736.83 487.503 742.1 484.073 747.16C460.663 741.46 437.813 733.44 415.973 723.25C426.113 715.69 430.323 693.83 436.463 682.79C444.923 667.59 454.633 653.12 463.673 638.27C473.213 622.59 483.413 604.77 498.563 593.75C531.163 570.02 574.003 594.05 608.273 599.75C625.783 602.66 644.423 617.83 659.343 605.5C706.063 718.04 602.313 693.51 586.583 679.88C577.513 667.28 544.273 621.31 528.663 652.71C515.993 678.21 507.083 706.34 493.553 731.42Z" fill="url(#paint8_linear_201_3)"/>
<path opacity="0.74" d="M479.733 807.29C499.283 805.56 547.763 806.06 547.763 806.06C547.763 806.06 557.323 775.94 558.753 768.19C561.133 755.33 562.453 742.31 564.613 729.42C566.033 720.97 567.203 703.47 573.763 697.22C580.823 690.51 611.253 693.71 609.833 680.05C609.323 675.11 599.343 668.9 596.073 665.37C591.503 660.44 587.063 655.41 582.283 650.68C572.913 641.39 562.123 631.24 549.393 626.84C539.883 623.56 522.633 625.23 519.683 637.74C506.303 694.5 492.793 751.83 479.723 807.29H479.733ZM567.253 694.86L567.273 703.17C567.043 700.54 567.003 697.65 567.253 694.86Z" fill="url(#paint9_linear_201_3)"/>
<path d="M638.991 691.49C614.601 686.2 597.391 669.76 583.461 656.44C580.451 653.56 577.601 650.84 574.851 648.42C555.441 633.85 540.441 629.03 528.991 633.71C510.421 641.28 505.661 672.3 501.461 699.67C500.031 708.98 498.671 717.82 496.871 724.99C498.251 722.24 499.591 719.46 500.891 716.66C501.861 711.47 502.731 705.83 503.631 700C507.741 673.21 512.401 642.84 529.821 635.73C540.501 631.38 554.801 636.1 573.481 650.11C576.131 652.44 578.961 655.15 581.961 658.02C594.221 669.74 610.461 685.26 632.341 691.99C634.581 691.93 636.811 691.77 639.001 691.48L638.991 691.49Z" fill="#EEEEF1"/>
<path d="M708.904 586.26C717.084 608.06 706.124 626.18 683.744 618.89C644.954 604.82 620.604 455.35 684.214 515.94C694.634 537.51 701.384 562.73 708.904 586.26Z" fill="#E89C3B"/>
<path d="M660.364 476.6C670.674 480.9 676.264 490.8 680.574 500.53C682.644 505.21 684.814 509.97 686.524 514.78C688.394 520.06 691.934 525.79 692.414 531.41C692.484 532.24 692.464 533.13 692.044 533.86C691.744 534.37 691.284 534.75 690.824 535.12C684.324 540.36 677.814 545.17 670.224 548.64C667.994 549.66 665.744 550.67 663.584 551.84C660.674 553.4 658.574 555.73 655.824 557.53C654.374 558.48 652.824 559.28 651.214 559.92C652.194 560.44 652.664 561.56 653.034 562.6C657.194 574.16 659.484 586.45 662.014 598.48C663.074 603.51 665.094 610.06 663.584 615.21C662.474 619.02 659.104 620.2 655.494 620.8C648.464 621.97 641.094 621.62 633.994 621.87C623.254 622.24 612.624 623.35 601.924 624.23C542.094 629.17 541.934 619.38 533.884 566.25C517.284 464.99 581.744 442.28 660.364 476.61V476.6Z" fill="#B82AE8"/>
<path d="M566.281 541.06C573.021 641.52 529.311 626.04 529.271 601.86C516.681 476.04 568.391 484.08 566.281 541.06Z" fill="#D56D5B"/>
<path d="M554.333 542.05C564.463 540.86 574.583 539.59 584.693 538.24C581.553 514.08 589.093 475.95 574.653 457.92C524.413 450.6 529.813 512.45 522.703 545.52C533.253 544.45 543.803 543.29 554.333 542.05Z" fill="#B82AE8"/>
<path d="M649.823 562.531C649.623 562.531 649.433 562.42 649.333 562.23C647.383 558.38 644.813 554.261 642.323 550.271C639.393 545.591 636.373 540.75 634.203 536.12C634.073 535.85 634.203 535.52 634.463 535.39C634.733 535.26 635.063 535.381 635.193 535.651C637.333 540.221 640.343 545.03 643.253 549.69C645.753 553.69 648.343 557.84 650.313 561.73C650.453 562 650.343 562.331 650.073 562.461C649.993 562.501 649.913 562.521 649.823 562.521V562.531Z" fill="#EEEEF1"/>
<path d="M611.382 623.61C592.762 625.83 572.242 628.24 554.332 622.96C573.832 593.35 578.822 610.43 606.752 605.12C716.612 552.17 727.532 614.52 695.642 619.98C666.702 620.94 640.212 619.74 611.382 623.61Z" fill="#E89C3B"/>
<path d="M470.533 472.901C470.393 473.811 470.563 474.771 471.033 475.561C469.033 476.221 468.113 479.021 469.353 480.731C469.453 480.871 469.563 481.011 469.573 481.181C469.573 481.391 469.423 481.561 469.303 481.721C466.543 485.291 473.603 490.461 475.683 492.421C478.553 495.131 482.033 496.781 486.003 497.251C489.493 512.741 492.623 528.151 495.393 543.781C498.493 561.231 502.763 584.071 523.583 587.551C526.113 587.971 529.523 588.521 532.043 587.941C549.093 584.041 534.263 548.501 530.933 539.741C526.083 526.981 520.303 514.561 514.073 502.421C511.123 496.671 508.053 490.981 504.853 485.361C503.423 482.851 502.083 480.191 500.463 477.801C498.273 474.571 495.713 471.951 494.463 468.081C494.013 466.671 493.703 465.211 493.563 463.741C493.313 461.171 493.543 458.581 493.813 456.011C493.853 455.601 493.893 455.151 493.653 454.821C493.333 454.381 492.643 454.351 492.173 454.631C491.703 454.901 491.393 455.391 491.123 455.861C489.373 458.921 488.213 462.311 487.723 465.801C487.623 466.511 487.553 467.181 487.273 467.831C483.883 465.801 476.543 458.841 473.703 465.421C473.133 466.731 473.193 468.291 473.853 469.551C472.573 469.771 471.413 470.641 470.863 471.821C470.703 472.161 470.593 472.531 470.533 472.911V472.901Z" fill="#E89C3B"/>
<path d="M558.232 558.5C557.952 558.5 557.712 558.28 557.692 558C557.302 553.38 557.062 548.25 556.832 543.29C556.442 534.97 556.042 526.36 554.902 520.09C554.852 519.79 555.042 519.51 555.342 519.45C555.632 519.4 555.922 519.59 555.982 519.89C557.142 526.23 557.543 534.88 557.933 543.24C558.163 548.19 558.403 553.31 558.793 557.91C558.823 558.21 558.593 558.47 558.293 558.5C558.283 558.5 558.262 558.5 558.242 558.5H558.232Z" fill="#EEEEF1"/>
<path d="M473.104 493.57L471.844 501.93L476.444 494.85L473.104 493.57Z" fill="#5B7799"/>
<path d="M659.031 586.2C666.251 586.93 673.371 588.73 680.061 591.55" stroke="black" stroke-width="0.5" stroke-miterlimit="10"/>
<path d="M495.194 441.36C490.054 454.79 479.804 481.36 474.664 494.79" stroke="black" stroke-width="3" stroke-miterlimit="10"/>
<path d="M476.631 462.71C480.781 462.87 484.891 464.18 488.371 466.45C489.111 466.93 489.881 467.56 489.961 468.44C490.091 469.93 488.241 470.71 486.751 470.87C484.521 471.11 482.251 470.98 480.061 470.51C478.451 470.16 476.791 469.55 475.791 468.25C474.791 466.94 474.801 464.77 476.171 463.87" fill="#E89C3B"/>
<path d="M487.241 478.511C486.601 482.831 485.111 492.59 480.201 492.66C479.291 492.67 478.431 492.32 477.591 491.98C476.371 491.48 475.151 490.98 473.931 490.48C473.331 490.23 472.721 489.981 472.191 489.611C469.851 488.001 469.511 484.601 470.301 481.871C471.111 479.051 473.501 472.021 476.911 471.511C477.681 471.401 478.461 471.591 479.211 471.771C481.101 472.241 482.991 472.711 484.871 473.181C485.451 473.331 486.061 473.481 486.531 473.861C487.611 474.731 487.561 476.371 487.351 477.741C487.321 477.971 487.281 478.221 487.241 478.501V478.511Z" fill="#E89C3B"/>
<path d="M741.201 596.53C658.881 561.25 556.001 638.9 599.351 717.73" stroke="black" stroke-width="3" stroke-miterlimit="10"/>
<path d="M488.501 466.04C489.001 466.56 489.791 466.76 490.251 467.33C490.971 468.22 490.511 469.63 489.611 470.33C488.711 471.03 487.521 471.19 486.391 471.33" stroke="black" stroke-width="0.5" stroke-miterlimit="10"/>
<path d="M479.562 492.1C480.602 492.42 481.672 492.65 482.742 492.79C483.962 492.95 485.462 492.85 486.062 491.78C486.762 490.53 485.702 489.04 484.712 488C486.292 487.98 488.152 487.56 488.782 486.11C489.222 485.08 488.852 483.84 488.152 482.97C487.442 482.1 486.452 481.51 485.482 480.95C487.122 480.76 488.942 480.46 489.942 479.15C490.582 478.32 490.762 477.16 490.402 476.17C490.042 475.18 489.162 474.41 488.142 474.18" stroke="black" stroke-width="0.5" stroke-miterlimit="10"/>
<path d="M743.23 625.49L766.19 875.82" stroke="black" stroke-width="2" stroke-miterlimit="10"/>
<g style="mix-blend-mode:soft-light">
<path d="M711.393 596.58C707.093 597.02 702.333 599.45 698.493 603.59C693.553 608.91 691.533 615.54 692.843 620.5C700.233 620.61 705.693 617.33 708.763 611.92C710.233 609.69 711.083 607.18 711.253 604.6C711.653 602.12 711.693 599.42 711.403 596.58H711.393Z" fill="#1B172C"/>
</g>
<path d="M427.45 625.49L404.48 875.82" stroke="black" stroke-width="2" stroke-miterlimit="10"/>
<path d="M757.803 616.7H406.703V628.36H757.803V616.7Z" fill="#ADACA5"/>
<path d="M461.283 616.9H610.703C612.663 616.9 614.263 615.31 614.263 613.34C614.263 611.37 612.673 609.78 610.703 609.78H461.283C459.323 609.78 457.723 611.37 457.723 613.34C457.723 615.3 459.313 616.9 461.283 616.9Z" fill="black"/>
<path d="M457.242 616.9H591.012L579.372 540.03C578.972 537.36 576.702 535.37 574.072 535.37H450.902C447.722 535.37 445.332 538.24 445.822 541.46L457.242 616.9Z" fill="black"/>
<path d="M509.891 577.05C509.891 580.59 512.761 583.45 516.291 583.45C519.821 583.45 522.691 580.58 522.691 577.05C522.691 573.52 519.821 570.65 516.291 570.65C512.761 570.65 509.891 573.52 509.891 577.05Z" fill="white"/>
<path style="mix-blend-mode:overlay" d="M453.543 538.55L590.593 396.53L686.883 566.45L589.933 609.78L453.543 538.55Z" fill="url(#paint10_linear_201_3)"/>
<path d="M555.483 429.11C551.583 426.69 547.643 423.67 546.213 419.3C544.773 414.94 547.143 409.11 551.713 408.59C553.203 408.42 554.703 408.81 556.203 408.7C559.783 408.42 562.493 405.32 564.073 402.1C565.653 398.88 566.543 395.29 568.613 392.37C570.693 389.44 574.563 387.29 577.853 388.71C579.703 389.5 580.983 391.24 582.673 392.33C586.583 394.84 591.693 393.49 596.203 392.38C600.713 391.28 606.253 390.81 609.263 394.35C613.953 399.86 607.923 409.11 611.593 415.34C613.633 418.79 617.983 420.09 620.783 422.96C625.593 427.87 623.923 437.37 617.733 440.35C614.963 441.68 611.773 441.79 608.833 442.69C605.893 443.59 602.913 445.82 602.833 448.89" fill="#0C0B36"/>
<path d="M612.932 437.641C611.882 433.321 607.472 430.641 603.082 431.671C598.692 432.691 595.972 437.031 597.022 441.351C598.072 445.671 602.482 448.351 606.872 447.321C611.262 446.301 613.982 441.961 612.932 437.641Z" fill="#C483FB"/>
<path d="M606.001 435.63C603.281 435.77 601.041 438.45 601.481 441.15C601.521 441.41 601.921 441.3 601.881 441.04C601.481 438.6 603.571 436.16 606.001 436.04C606.261 436.03 606.261 435.62 606.001 435.63Z" fill="#0E133A"/>
<path d="M577.555 472.54V465.46C577.555 465.46 560.335 470.39 559.175 455.18C557.155 428.69 555.074 421.63 565.354 412.77C575.634 403.91 604.284 413.59 604.204 435.89L604.915 468.25C604.915 468.25 601.075 471.97 592.915 473.38C584.365 474.86 577.555 472.53 577.555 472.53V472.54Z" fill="#E89C3B"/>
<path d="M577.013 436.87C577.183 437.92 576.943 438.84 576.463 438.91C575.983 438.98 575.463 438.19 575.293 437.14C575.123 436.09 575.363 435.17 575.843 435.1C576.323 435.03 576.843 435.82 577.013 436.87Z" fill="#0C0B36"/>
<path d="M563.411 438.92C563.581 439.97 563.341 440.89 562.861 440.96C562.381 441.03 561.861 440.24 561.691 439.19C561.521 438.14 561.761 437.22 562.241 437.15C562.721 437.08 563.241 437.87 563.411 438.92Z" fill="#0C0B36"/>
<g style="mix-blend-mode:soft-light">
<path d="M597.313 440.64C596.123 435.71 591.083 432.65 586.073 433.82C581.063 434.99 577.963 439.93 579.153 444.87C580.343 449.8 585.383 452.86 590.393 451.69C595.413 450.52 598.503 445.58 597.313 440.64Z" fill="#0C0B36"/>
</g>
<g style="mix-blend-mode:soft-light">
<path d="M562.534 446.431C561.904 443.831 560.194 441.771 557.984 440.561C558.304 444.691 558.734 449.461 559.174 455.191C559.184 455.381 559.234 455.531 559.254 455.721C561.994 453.581 563.404 450.011 562.534 446.441V446.431Z" fill="#0C0B36"/>
</g>
<g style="mix-blend-mode:soft-light">
<path d="M566.162 431.45L568.562 430.89L571.772 444.16L565.992 445.51L566.162 431.45Z" fill="#0E133A"/>
</g>
<path d="M576.704 428.42C576.734 429.14 575.724 429.78 574.434 429.84C573.144 429.9 572.074 429.36 572.044 428.64C572.014 427.92 573.024 427.28 574.314 427.22C575.604 427.16 576.674 427.7 576.704 428.42Z" fill="#0C0B36"/>
<path d="M563.152 430.22C563.532 430.84 562.951 431.87 561.841 432.53C560.741 433.18 559.532 433.21 559.152 432.59C558.772 431.97 559.351 430.94 560.461 430.28C561.561 429.63 562.772 429.6 563.152 430.22Z" fill="#0C0B36"/>
<path d="M572.572 452.33C571.332 452.64 569.172 452.4 568.142 451.22C567.782 450.8 567.112 449.85 567.952 449.21C568.792 448.57 570.132 449.32 571.232 449.03C572.312 448.75 573.332 446.86 574.842 447.1C575.972 447.28 576.522 447.83 576.632 448.74C576.792 450.09 575.232 451.81 572.782 452.33" fill="#0C0B36"/>
<path d="M559.983 412.58C559.283 415.73 562.693 418.46 565.913 418.7C569.133 418.94 572.243 417.64 575.433 417.15C578.623 416.67 582.473 417.38 583.913 420.27C585.343 423.14 584.113 427.54 586.943 429.05C589.713 430.52 593.293 427.22 596.083 428.65C598.233 429.75 598.683 433.16 601.033 433.72C602.973 434.18 604.753 432.09 604.763 430.1C604.763 428.11 603.583 426.33 602.403 424.73C598.353 419.24 593.653 414.02 587.593 410.88C581.533 407.75 573.893 407.03 567.993 410.44" fill="#0C0B36"/>
<path d="M604.914 438.5C605.634 438.5 606.214 437.92 606.214 437.2V426.48C606.214 419.56 603.364 413.17 598.384 408.96C594.894 406 588.764 402.68 579.504 404.35C575.234 405.12 571.754 407.4 572.474 407.4C573.194 407.4 574.754 406.99 579.314 406.34C585.904 405.4 592.304 407.22 596.704 410.95C601.094 414.67 603.614 420.33 603.614 426.48V437.2C603.614 437.92 604.194 438.5 604.914 438.5Z" fill="white"/>
<path d="M596.652 439.8C596.652 435 600.352 431.11 604.902 431.11C609.452 431.11 613.152 435 613.152 439.8C613.152 444.6 609.452 448.49 604.902 448.49C600.352 448.49 596.652 444.6 596.652 439.8Z" fill="white"/>
<path d="M600.484 439.8C600.484 437.23 602.464 435.14 604.904 435.14C607.344 435.14 609.324 437.22 609.324 439.8C609.324 442.38 607.344 444.46 604.904 444.46C602.464 444.46 600.484 442.38 600.484 439.8Z" fill="#B82AE8"/>
<path d="M584.531 448.31C591.951 448.05 599.121 445.01 604.471 439.87C605.101 439.26 606.071 440.23 605.441 440.84C599.831 446.24 592.311 449.41 584.531 449.68C583.651 449.71 583.651 448.34 584.531 448.31Z" fill="white"/>
<path d="M581.091 448.85C580.921 450.9 582.441 452.7 584.471 452.86C586.501 453.02 588.281 451.49 588.451 449.44C588.621 447.39 587.101 445.59 585.071 445.43C583.041 445.27 581.261 446.8 581.091 448.85Z" fill="#540CDE"/>
<path d="M483.354 791.92H552.144C552.364 791.2 552.584 790.47 552.804 789.73H483.864C483.694 790.46 483.524 791.19 483.344 791.92H483.354Z" fill="#EEEEF1"/>
<path d="M424.973 710.71L489.813 738.03C490.183 737.4 490.563 736.76 490.923 736.13L425.883 708.72C425.583 709.39 425.283 710.06 424.973 710.71Z" fill="#EEEEF1"/>
<path d="M557.752 471.3C561.322 474.25 565.362 476.55 569.682 478.21C574.052 479.89 578.662 480.91 583.322 481.36C588.052 481.82 592.832 481.67 597.542 480.99C602.192 480.32 606.762 479.11 611.112 477.34C615.352 475.62 619.372 473.39 622.992 470.58C623.422 470.25 623.842 469.91 624.262 469.56C624.802 469.11 624.022 468.34 623.492 468.79C620.082 471.64 616.232 473.93 612.172 475.72C607.982 477.57 603.532 478.86 599.022 479.65C594.452 480.45 589.782 480.71 585.152 480.41C580.582 480.12 576.042 479.26 571.702 477.78C567.452 476.33 563.402 474.25 559.812 471.54C559.372 471.21 558.952 470.87 558.532 470.52C557.992 470.07 557.212 470.84 557.762 471.29L557.752 471.3Z" fill="#EEEEF1"/>
<path d="M427.723 472.3L445.333 492.77L401.633 494.76L427.723 472.3Z" fill="#F9F9F9"/>
<path d="M410.132 497.538C435.277 479.741 441.234 444.929 423.437 419.783C405.639 394.638 370.828 388.681 345.682 406.479C320.537 424.276 314.58 459.088 332.377 484.233C350.175 509.379 384.987 515.336 410.132 497.538Z" fill="#F4F7FA"/>
<path d="M350.074 431.47H404.574L378.114 448.72L350.074 431.47Z" fill="#B82AE8"/>
<path d="M377.582 450.86C377.752 450.96 377.943 451.02 378.133 451.02C378.323 451.02 378.532 450.96 378.712 450.85L406.503 432.73V468.07H348.062V432.71L377.582 450.87V450.86Z" fill="#B82AE8"/>
<g opacity="0.74">
<path d="M350.074 431.47H404.574L378.114 448.72L350.074 431.47Z" fill="url(#paint11_linear_201_3)"/>
<path d="M377.582 450.86C377.752 450.96 377.943 451.02 378.133 451.02C378.323 451.02 378.532 450.96 378.712 450.85L406.503 432.73V468.07H348.062V432.71L377.582 450.87V450.86Z" fill="url(#paint12_linear_201_3)"/>
</g>
<path d="M329.252 467.768C338.886 463.722 343.416 452.632 339.37 442.998C335.325 433.364 324.235 428.834 314.6 432.879C304.966 436.925 300.436 448.015 304.482 457.649C308.528 467.283 319.618 471.814 329.252 467.768Z" fill="#DD5853"/>
<path d="M313.5 451.34L320.59 456.51L329.01 445.81" stroke="white" stroke-width="2.42" stroke-linecap="round" stroke-linejoin="round"/>
<path d="M359.193 388.26C359.193 388.26 359.193 388.2 359.193 388.17L358.103 371.12C358.053 370.34 357.383 369.75 356.603 369.8C355.823 369.85 355.243 370.51 355.283 371.3L356.373 388.35C356.423 389.13 357.093 389.72 357.873 389.67C358.623 389.62 359.193 389 359.193 388.26Z" fill="#EFCA30"/>
<path d="M343.694 395.42C343.694 395.1 343.584 394.77 343.354 394.5L332.284 381.48C331.774 380.89 330.884 380.81 330.294 381.32C329.694 381.83 329.624 382.72 330.134 383.31L341.204 396.33C341.714 396.92 342.604 397 343.194 396.49C343.524 396.21 343.694 395.81 343.694 395.41V395.42Z" fill="#EFCA30"/>
<path d="M328.793 407.26C328.793 406.69 328.453 406.16 327.883 405.94L311.933 399.8C311.203 399.52 310.383 399.88 310.103 400.61C309.823 401.34 310.183 402.16 310.913 402.44L326.863 408.58C327.593 408.86 328.413 408.5 328.693 407.77C328.753 407.6 328.783 407.43 328.783 407.26H328.793Z" fill="#EFCA30"/>
<path d="M681.31 128.99H516.54C511.31 128.99 507.07 133.23 507.07 138.46V338.01C507.07 343.24 511.31 347.48 516.54 347.48H681.31C686.541 347.48 690.78 343.24 690.78 338.01V138.46C690.78 133.23 686.541 128.99 681.31 128.99Z" fill="#F5F5F5"/>
<path d="M595.371 306.66C582.731 306.66 570.101 301.85 560.481 292.23C541.241 272.99 541.241 241.69 560.481 222.45C579.721 203.21 611.021 203.21 630.261 222.45C649.501 241.69 649.501 272.99 630.261 292.23C620.641 301.85 608.001 306.66 595.371 306.66ZM595.371 212.01C583.761 212.01 572.151 216.43 563.311 225.27C545.631 242.95 545.631 271.72 563.311 289.4C580.991 307.08 609.761 307.08 627.441 289.4C645.121 271.72 645.121 242.95 627.441 225.27C618.601 216.43 606.991 212.01 595.381 212.01H595.371Z" fill="#B82AE8"/>
<g style="mix-blend-mode:multiply">
<path d="M595.371 306.66C582.731 306.66 570.101 301.85 560.481 292.23C541.241 272.99 541.241 241.69 560.481 222.45C579.721 203.21 611.021 203.21 630.261 222.45C649.501 241.69 649.501 272.99 630.261 292.23C620.641 301.85 608.001 306.66 595.371 306.66ZM595.371 212.01C583.761 212.01 572.151 216.43 563.311 225.27C545.631 242.95 545.631 271.72 563.311 289.4C580.991 307.08 609.761 307.08 627.441 289.4C645.121 271.72 645.121 242.95 627.441 225.27C618.601 216.43 606.991 212.01 595.381 212.01H595.371Z" fill="url(#paint13_linear_201_3)"/>
</g>
<path d="M558.892 290.81L592.372 257.33L558.892 223.85C558.892 223.85 528.312 255.53 558.892 290.8V290.81Z" fill="#EFCA30"/>
<path d="M651.589 263.097C655.124 248.025 645.772 232.942 630.7 229.407C615.629 225.872 600.545 235.224 597.01 250.296C593.475 265.367 602.827 280.451 617.899 283.986C632.97 287.521 648.054 278.169 651.589 263.097Z" fill="#DD5853"/>
<path d="M607.155 267.18L606.565 267.12C606.155 267.04 605.905 266.85 605.825 266.56C605.825 266.48 605.745 266.4 605.585 266.32C605.465 266.32 605.315 266.22 605.145 266.01C604.965 265.8 604.875 265.42 604.865 264.86C604.865 264.3 604.855 263.72 604.855 263.13C604.855 262.54 604.855 262.21 604.885 262.16C604.945 262.16 604.945 262.04 604.885 261.81C604.805 261.04 604.795 260.52 604.855 260.23C604.915 259.94 604.955 258.97 604.975 257.32C604.995 255.67 604.925 254.8 604.765 254.72C604.745 254.68 604.675 254.68 604.555 254.71C604.435 254.74 604.345 254.78 604.285 254.84C604.125 255.15 604.035 255.31 603.985 255.31C603.905 255.39 603.805 255.47 603.695 255.55C603.335 255.96 602.785 256.08 602.035 255.9C601.505 255.82 601.165 255.71 601.015 255.58C600.865 255.44 600.775 255.24 600.735 254.97C600.695 254.7 600.805 254.48 601.055 254.31C601.565 253.96 601.925 253.56 602.145 253.13L602.555 252.66L602.875 252.42C602.875 252.42 602.935 252.31 603.055 252.21C603.175 252.11 603.295 252.01 603.425 251.9C603.555 251.79 603.615 251.69 603.615 251.59L603.915 251.12C604.115 250.92 604.215 250.75 604.215 250.59C604.235 250.59 604.305 250.53 604.425 250.41C604.545 250.29 604.655 250.2 604.745 250.14C604.885 249.87 605.155 249.5 605.575 249.05C605.825 248.68 605.965 248.48 605.975 248.47C605.975 248.46 606.025 248.44 606.095 248.4C606.165 248.36 606.255 248.32 606.375 248.27C606.495 248.22 606.615 248.16 606.745 248.08C606.875 248 606.985 247.96 607.075 247.95C607.165 247.95 607.375 247.95 607.705 247.99C608.035 248.03 608.205 248.07 608.205 248.11C608.205 248.15 608.235 248.21 608.295 248.3C608.355 248.39 608.425 248.43 608.505 248.43C608.585 248.43 608.675 248.5 608.775 248.64C608.855 248.64 609.025 248.71 609.305 248.85C609.465 249.05 609.555 249.19 609.575 249.29C609.455 249.35 609.395 249.47 609.395 249.64L609.135 252.06C608.875 253.16 608.695 255.75 608.575 259.82C608.495 260.41 608.455 260.88 608.455 261.22C608.455 261.56 608.415 262.1 608.335 262.83C608.255 263.56 608.215 264.28 608.215 264.99C608.215 265.7 608.195 266.17 608.155 266.41C608.015 266.98 607.685 267.24 607.155 267.18Z" fill="#FDFBF8"/>
<path d="M612.264 263.82L613.354 263.49C613.494 263.49 613.634 263.42 613.774 263.28C613.994 263.14 614.204 263.08 614.424 263.1L615.724 262.45L616.134 262.3C616.784 261.97 617.144 261.79 617.224 261.77C617.464 261.59 617.634 261.49 617.754 261.47C617.854 261.45 618.014 261.36 618.224 261.2C618.424 261 618.624 260.87 618.844 260.79C618.924 260.71 619.094 260.57 619.374 260.38C620.004 259.75 620.194 259.24 619.934 258.84C619.834 258.7 619.664 258.59 619.434 258.52C618.844 258.48 618.334 258.46 617.894 258.46C617.454 258.46 616.804 258.56 615.914 258.75L614.084 258.99C613.904 259.13 613.634 258.99 613.254 258.58C613.134 258.58 612.844 258.4 612.364 258.05C612.204 257.85 612.064 257.71 611.954 257.61C611.674 257.45 611.494 257.26 611.394 257.02C611.374 256.9 611.454 256.42 611.614 255.57C611.784 254.72 611.884 254.24 611.924 254.12C611.964 254 611.994 253.86 612.014 253.71L612.304 252.91C612.854 251.69 613.134 250.94 613.134 250.67L613.014 250.32C612.774 249.97 612.664 249.63 612.664 249.3C612.664 248.97 612.684 248.79 612.724 248.75C612.764 248.71 612.894 248.71 613.104 248.75C613.144 248.73 613.274 248.65 613.484 248.51C613.664 248.12 613.884 248.03 614.164 248.24C614.244 248.36 614.354 248.44 614.504 248.49C614.654 248.54 614.804 248.52 614.964 248.42C615.124 248.32 615.334 248.36 615.614 248.54C615.714 248.52 615.924 248.52 616.234 248.54C616.334 248.6 616.444 248.59 616.554 248.51C616.694 248.37 616.944 248.29 617.304 248.27C617.674 248.25 617.934 248.21 618.114 248.14C618.294 248.07 618.564 248.07 618.944 248.13C619.184 248.05 619.414 248.01 619.654 248.01C619.694 248.05 619.824 248.03 620.034 247.95H620.064C620.594 247.91 621.044 248 621.394 248.22C621.534 248.26 621.644 248.34 621.714 248.46C621.794 248.64 621.984 248.8 622.274 248.93C622.234 249.03 622.324 249.23 622.534 249.54C622.754 249.85 622.894 250.16 622.944 250.49C623.004 250.81 622.984 251.03 622.874 251.12C622.764 251.22 622.634 251.3 622.474 251.37C622.314 251.44 622.084 251.44 621.764 251.38C621.454 251.32 621.044 251.29 620.554 251.29C619.824 251.35 618.864 251.47 617.664 251.64C617.214 251.76 616.654 251.85 615.984 251.91C615.964 251.93 615.924 252.09 615.854 252.38C615.784 252.68 615.734 252.85 615.694 252.91C615.534 253.82 615.384 254.45 615.254 254.81C615.114 255.18 615.044 255.39 615.044 255.45C616.284 255.27 616.934 255.19 616.994 255.21H618.144C619.074 255.25 619.734 255.42 620.124 255.71L620.444 255.95C620.834 256.19 621.164 256.44 621.414 256.72L623.094 258.88C623.394 259.35 623.564 259.71 623.624 259.94C623.844 260.22 623.924 260.53 623.864 260.89C623.784 260.89 623.734 260.92 623.704 260.96C623.674 261.01 623.644 261.05 623.634 261.09C623.554 261.19 623.504 261.28 623.484 261.36L622.684 262.33L622.244 262.8C622.224 262.9 621.724 263.28 620.754 263.95C619.774 264.62 619.064 265.05 618.614 265.25C617.214 265.9 616.224 266.33 615.644 266.53C615.064 266.74 614.334 266.89 613.444 266.99C613.284 267.11 612.974 267.12 612.494 267.03C612.024 266.94 611.534 266.59 611.014 265.98C610.774 265.73 610.644 265.56 610.614 265.49C610.584 265.42 610.624 265.31 610.744 265.15C610.664 264.76 610.574 264.48 610.484 264.32C610.524 264.24 610.604 264.15 610.724 264.05C610.904 263.97 611.154 263.9 611.494 263.84C611.714 263.9 611.954 263.88 612.234 263.78L612.264 263.82Z" fill="#FDFBF8"/>
<path d="M625.736 250.32L625.916 249.67V249.57C625.916 249.57 625.956 249.45 626.036 249.35C626.136 249.25 626.206 249.13 626.246 249C626.206 248.66 626.437 248.28 626.927 247.85C626.987 247.81 627.027 247.77 627.057 247.72C627.087 247.67 627.106 247.63 627.116 247.59C627.116 247.55 627.166 247.49 627.246 247.41C627.526 247.21 627.866 247.16 628.276 247.26C628.646 247.34 628.856 247.36 628.896 247.33C628.936 247.3 629.106 247.25 629.396 247.17C630.106 247.13 630.806 247.54 631.496 248.41C631.946 248.96 632.267 249.55 632.437 250.18C632.707 250.85 632.816 251.58 632.756 252.38C632.696 253.18 632.606 253.65 632.486 253.81C632.466 254.03 632.316 254.51 632.026 255.26C631.736 256.01 631.556 256.44 631.476 256.56C631.356 256.8 631.286 256.95 631.256 257.03C631.226 257.11 631.126 257.24 630.946 257.41C630.676 257.69 630.396 257.87 630.106 257.97C629.816 258.07 629.507 258.12 629.177 258.12C628.847 258.12 628.646 258.12 628.586 258.15C628.446 258.13 628.346 258.12 628.296 258.12H628.086C627.866 258.12 627.607 258.04 627.307 257.88C626.997 257.72 626.736 257.49 626.526 257.17L626.116 256.37C625.976 256.29 625.886 256.04 625.856 255.63C625.696 255.18 625.556 254.4 625.446 253.3C625.426 252.96 625.467 252.11 625.567 250.73C625.567 250.59 625.616 250.52 625.716 250.52C625.756 250.48 625.766 250.41 625.746 250.31L625.736 250.32ZM629.986 254.69C630.166 254.04 630.296 253.67 630.396 253.57C630.416 253.47 630.427 253.38 630.427 253.3V253.03C630.487 252.62 630.456 252.05 630.336 251.32C630.316 250.93 630.267 250.62 630.187 250.4C630.107 250.18 629.916 249.88 629.626 249.48C629.386 249.3 629.276 249.19 629.276 249.13C629.136 249.01 628.976 249.1 628.776 249.4C628.716 249.56 628.576 249.83 628.366 250.23C628.146 250.62 628.036 250.84 628.016 250.88C628.056 250.96 628.016 251.06 627.896 251.17C627.876 251.21 627.876 251.27 627.886 251.35C627.886 251.43 627.886 251.52 627.886 251.62C627.886 251.72 627.846 252.22 627.786 253.13C627.786 253.6 627.826 253.94 627.906 254.13C627.906 254.48 627.936 254.8 627.996 255.07C627.976 255.44 627.996 255.69 628.086 255.81C628.266 256.18 628.456 256.37 628.666 256.37C628.876 256.37 629.106 256.22 629.356 255.93C629.606 255.63 629.806 255.27 629.946 254.84C629.906 254.74 629.926 254.69 630.006 254.69H629.986ZM640.346 249H640.466C640.466 249 640.577 249.03 640.677 249.04C640.777 249.04 640.856 249.06 640.916 249.08C641.526 249.53 641.606 250.08 641.156 250.73C640.286 251.81 639.726 252.61 639.456 253.12C639.196 253.63 638.906 254.14 638.586 254.66C638.426 254.92 637.076 257.13 634.536 261.3L633.616 263.1C632.886 264.52 632.356 265.76 632.026 266.82C631.786 267.19 631.436 267.22 630.966 266.91C630.946 266.89 630.926 266.88 630.906 266.87C630.886 266.87 630.866 266.84 630.846 266.8C630.826 266.76 630.806 266.72 630.776 266.68C630.746 266.64 630.696 266.59 630.616 266.53C630.396 266.29 630.246 265.84 630.146 265.17C630.146 264.82 630.186 264.55 630.266 264.37C630.486 263.9 630.787 263.15 631.177 262.13C631.357 261.89 631.576 261.5 631.856 260.95C631.956 260.67 632.156 260.32 632.446 259.89L634.307 256.5C634.697 255.87 635.046 255.29 635.336 254.76C635.456 254.64 635.647 254.37 635.927 253.93L636.516 252.75C637.346 251.71 637.846 251.04 638.016 250.74C638.196 250.44 638.386 250.22 638.576 250.06C638.596 250 638.677 249.89 638.817 249.72C638.957 249.55 639.166 249.38 639.466 249.2C639.766 249.02 640.056 248.95 640.356 248.99L640.346 249ZM638.726 259.77L638.906 259.12V259.02C638.906 259.02 638.946 258.9 639.026 258.8C639.126 258.7 639.196 258.58 639.236 258.45C639.196 258.12 639.426 257.73 639.916 257.3C639.976 257.26 640.016 257.22 640.046 257.17C640.076 257.12 640.096 257.08 640.106 257.04C640.106 257 640.156 256.94 640.236 256.86C640.506 256.66 640.856 256.61 641.266 256.71C641.636 256.79 641.846 256.81 641.886 256.78C641.926 256.75 642.096 256.7 642.386 256.62C643.096 256.58 643.796 256.99 644.476 257.86C644.926 258.41 645.247 259 645.427 259.63C645.697 260.3 645.806 261.03 645.746 261.83C645.686 262.63 645.596 263.1 645.476 263.26C645.456 263.48 645.306 263.96 645.016 264.71C644.726 265.46 644.546 265.89 644.466 266.01C644.326 266.25 644.246 266.4 644.226 266.48C644.206 266.56 644.107 266.69 643.927 266.86C643.647 267.14 643.376 267.32 643.086 267.42C642.796 267.52 642.486 267.57 642.156 267.57C641.826 267.57 641.627 267.57 641.567 267.6C641.427 267.58 641.326 267.57 641.266 267.57H641.057C640.837 267.57 640.576 267.49 640.276 267.33C639.966 267.17 639.706 266.94 639.496 266.62L639.086 265.82C638.946 265.74 638.857 265.5 638.817 265.08C638.657 264.63 638.516 263.85 638.406 262.75C638.386 262.42 638.426 261.56 638.526 260.18C638.526 260.04 638.577 259.97 638.677 259.97C638.717 259.93 638.726 259.86 638.706 259.76L638.726 259.77ZM642.976 264.14C643.156 263.49 643.286 263.12 643.386 263.02C643.406 262.92 643.416 262.83 643.416 262.75V262.48C643.476 262.07 643.446 261.5 643.326 260.77C643.306 260.38 643.257 260.07 643.177 259.86C643.097 259.64 642.906 259.34 642.616 258.94C642.376 258.76 642.266 258.64 642.266 258.59C642.126 258.47 641.956 258.56 641.766 258.86C641.706 259.02 641.566 259.29 641.356 259.69C641.136 260.08 641.016 260.3 640.996 260.34C641.036 260.42 640.996 260.52 640.876 260.64C640.856 260.68 640.856 260.74 640.866 260.82C640.866 260.9 640.866 260.99 640.866 261.09C640.866 261.19 640.826 261.69 640.766 262.6C640.766 263.07 640.806 263.41 640.886 263.6C640.886 263.95 640.916 264.27 640.976 264.55C640.956 264.92 640.977 265.17 641.067 265.29C641.247 265.66 641.436 265.85 641.646 265.85C641.856 265.85 642.086 265.7 642.336 265.41C642.596 265.12 642.787 264.75 642.927 264.32C642.887 264.22 642.906 264.17 642.986 264.17L642.976 264.14Z" fill="#FDFBF8"/>
<path d="M1149.6 649.08C1154.75 649.08 1158.93 644.903 1158.93 639.75C1158.93 634.597 1154.75 630.42 1149.6 630.42C1144.45 630.42 1140.27 634.597 1140.27 639.75C1140.27 644.903 1144.45 649.08 1149.6 649.08Z" fill="#66B1C4"/>
<path d="M1149.6 696.24C1153.3 696.24 1156.3 693.24 1156.3 689.54C1156.3 685.839 1153.3 682.84 1149.6 682.84C1145.9 682.84 1142.9 685.839 1142.9 689.54C1142.9 693.24 1145.9 696.24 1149.6 696.24Z" fill="#EEF1FE"/>
<path d="M1156.3 739.33C1156.3 743.03 1153.3 746.03 1149.6 746.03C1145.9 746.03 1142.9 743.03 1142.9 739.33C1142.9 735.63 1145.9 732.63 1149.6 732.63C1153.3 732.63 1156.3 735.63 1156.3 739.33Z" fill="#EEF1FE"/>
<path d="M1149.6 795.81C1153.3 795.81 1156.3 792.81 1156.3 789.11C1156.3 785.41 1153.3 782.41 1149.6 782.41C1145.9 782.41 1142.9 785.41 1142.9 789.11C1142.9 792.81 1145.9 795.81 1149.6 795.81Z" fill="#EEF1FE"/>
<path d="M1156.3 838.9C1156.3 842.6 1153.3 845.6 1149.6 845.6C1145.9 845.6 1142.9 842.6 1142.9 838.9C1142.9 835.2 1145.9 832.2 1149.6 832.2C1153.3 832.2 1156.3 835.2 1156.3 838.9Z" fill="#EEF1FE"/>
<defs>
<linearGradient id="paint0_linear_201_3" x1="910.53" y1="202.29" x2="910.53" y2="391.95" gradientUnits="userSpaceOnUse">
<stop stop-color="white"/>
<stop offset="1" stop-color="white" stop-opacity="0"/>
</linearGradient>
<linearGradient id="paint1_linear_201_3" x1="818.362" y1="864.28" x2="905.082" y2="508.18" gradientUnits="userSpaceOnUse">
<stop stop-color="#4120C2"/>
<stop offset="1" stop-color="#4120C2" stop-opacity="0"/>
</linearGradient>
<linearGradient id="paint2_linear_201_3" x1="754.341" y1="374.34" x2="896.361" y2="257.79" gradientUnits="userSpaceOnUse">
<stop stop-color="white"/>
<stop offset="1" stop-color="white" stop-opacity="0"/>
</linearGradient>
<linearGradient id="paint3_linear_201_3" x1="913.524" y1="816.73" x2="1001.99" y2="816.73" gradientUnits="userSpaceOnUse">
<stop/>
<stop offset="1" stop-opacity="0"/>
</linearGradient>
<linearGradient id="paint4_linear_201_3" x1="995.251" y1="716.43" x2="1043.95" y2="592.41" gradientUnits="userSpaceOnUse">
<stop stop-color="#156771"/>
<stop offset="1" stop-color="#4120C2" stop-opacity="0"/>
</linearGradient>
<linearGradient id="paint5_linear_201_3" x1="1011.27" y1="750.51" x2="931.642" y2="682.71" gradientUnits="userSpaceOnUse">
<stop stop-color="#156771"/>
<stop offset="1" stop-color="#4120C2" stop-opacity="0"/>
</linearGradient>
<linearGradient id="paint6_linear_201_3" x1="1002.01" y1="718.47" x2="1094.67" y2="718.47" gradientUnits="userSpaceOnUse">
<stop stop-color="#156771"/>
<stop offset="1" stop-color="#4120C2" stop-opacity="0"/>
</linearGradient>
<linearGradient id="paint7_linear_201_3" x1="595.581" y1="719.69" x2="700.511" y2="548.891" gradientUnits="userSpaceOnUse">
<stop stop-color="#4120C2"/>
<stop offset="1" stop-color="#4120C2" stop-opacity="0"/>
</linearGradient>
<linearGradient id="paint8_linear_201_3" x1="600.473" y1="540.89" x2="549.683" y2="677.08" gradientUnits="userSpaceOnUse">
<stop/>
<stop offset="1" stop-opacity="0"/>
</linearGradient>
<linearGradient id="paint9_linear_201_3" x1="515.393" y1="608.39" x2="548.873" y2="762.44" gradientUnits="userSpaceOnUse">
<stop/>
<stop offset="1" stop-opacity="0"/>
</linearGradient>
<linearGradient id="paint10_linear_201_3" x1="437.393" y1="646.72" x2="604.223" y2="509.81" gradientUnits="userSpaceOnUse">
<stop stop-color="white"/>
<stop offset="1" stop-color="white" stop-opacity="0"/>
</linearGradient>
<linearGradient id="paint11_linear_201_3" x1="377.324" y1="484.44" x2="377.324" y2="440.48" gradientUnits="userSpaceOnUse">
<stop stop-color="#4120C2"/>
<stop offset="1" stop-color="#4120C2" stop-opacity="0"/>
</linearGradient>
<linearGradient id="paint12_linear_201_3" x1="377.282" y1="484.44" x2="377.282" y2="440.48" gradientUnits="userSpaceOnUse">
<stop stop-color="#4120C2"/>
<stop offset="1" stop-color="#4120C2" stop-opacity="0"/>
</linearGradient>
<linearGradient id="paint13_linear_201_3" x1="571.391" y1="219.3" x2="612.071" y2="283.82" gradientUnits="userSpaceOnUse">
<stop stop-color="#4120C2"/>
<stop offset="1" stop-color="#4120C2" stop-opacity="0"/>
</linearGradient>
</defs>
</svg>
