<svg width="252" height="195" viewBox="0 0 252 195" fill="none" xmlns="http://www.w3.org/2000/svg">
<path d="M69.9389 0.0651855L107.223 29.8926C85.5305 41.4168 60.4484 69.8884 54.3473 94.2926C56.381 92.9368 62.482 92.2589 67.9052 92.2589C93.6652 92.2589 114.002 111.918 114.002 141.067C114.002 170.217 89.5978 194.621 60.4484 194.621C28.5873 194.621 0.115723 169.539 0.115723 125.476C0.115723 74.6336 27.9094 29.2147 69.9389 0.0651855ZM207.552 0.0651855L245.514 29.8926C223.821 41.4168 198.061 69.8884 192.638 94.2926C194.672 92.9368 200.773 92.2589 206.196 92.2589C231.278 92.2589 251.615 111.918 251.615 141.067C251.615 170.217 227.888 194.621 198.061 194.621C166.2 194.621 138.406 169.539 138.406 125.476C138.406 74.6336 165.522 29.2147 207.552 0.0651855Z" fill="#ED4444"/>
</svg>
