<svg width="171" height="183" viewBox="0 0 171 183" fill="none" xmlns="http://www.w3.org/2000/svg">
<path d="M111.5 38.5C105.095 52.8481 98.5461 66.6702 91.5 81C82.7947 63.3863 73.932 45.4908 65.5476 27.7138C61.6348 19.4179 57.7616 11.103 53.9271 2.77066C53.6082 2.07768 53.7233 1.18495 53.5977 0.0231321C65.9195 0.0231321 78.0468 -0.0179548 90.1726 0.0921142C91.2811 0.102176 92.9692 0.78926 93.3959 1.65246C99.3345 13.6654 105.355 26.2488 111.5 38.5Z" fill="#C00000"/>
<path d="M112.5 124.5C116.468 114.81 121.197 105.828 125.505 96.3148C127.326 92.2956 128.87 87.7178 131 83.5C138.976 98.8978 146.936 115.049 154.583 130.656C156.979 135.545 159.28 140.479 161.925 146.02C148.776 146.02 136.202 146.053 123.629 145.957C122.645 145.949 121.093 145.283 120.778 144.521C118.144 138.137 115.315 131.126 112.5 124.5Z" fill="#C00000"/>
<path d="M111.584 38.1886C113.572 34.591 115.714 31.0684 117.517 27.3804C121.459 19.3193 125.12 11.1193 129.172 3.11556C129.872 1.73258 131.911 0.18515 133.36 0.156417C145.324 -0.0807796 157.295 0.0222784 170.014 0.0222784C157.065 28.0286 144.328 55.5762 131.281 83.6918C129.148 88.2781 127.324 92.2959 125.504 96.3151C121.195 105.828 116.888 115.342 112.58 124.856C103.635 143.909 94.6904 162.961 85.4668 182.607C56.9061 121.665 28.5639 61.1886 0 0.239272C13.5388 0.239272 26.3117 0.239272 39.3888 0.239272C54.3808 31.4477 69.4485 62.8138 84.5162 94.1798C84.9719 94.1759 85.4276 94.1721 85.8833 94.1682C87.5035 90.0119 89.1237 85.8557 91.0503 81.2059C98.099 66.5379 104.841 52.3632 111.584 38.1886Z" fill="black"/>
</svg>
